<svg width="627" height="266" fill="none" xmlns="http://www.w3.org/2000/svg"><path d="M58.774 44.513 41.254 76.96c-2.533 4.734-6.06 6.84-9.872 6.84-1.54 0-3.15-.379-4.736-1.041l1.16-3.314c1.279.497 2.486.781 3.647.781 2.32 0 4.474-1.16 6.226-4.141l1.113-1.87-15.65-29.702H27.5l13.447 26.128 13.78-26.128h4.048Zm14.844 25.679h-6.606V83.09h-3.906V54.098h3.906v12.733h6.677l10.204-12.733h4.237L76.72 68.156 88.96 83.09h-4.641L73.618 70.192Zm50.877-1.586c0 8.827-6.179 14.768-14.441 14.768-4.641 0-8.594-1.988-11.033-5.728v16.141h-3.906V54.098h3.74v5.727c2.368-3.857 6.393-5.94 11.199-5.94 8.286 0 14.441 5.94 14.441 14.72Zm-3.906 0c0-6.722-4.688-11.29-10.796-11.29-6.179 0-10.796 4.568-10.796 11.29 0 6.768 4.641 11.289 10.796 11.289 6.108 0 10.796-4.52 10.796-11.29Zm33.902-3.479V83.09h-3.74v-4.52c-1.776 2.981-5.185 4.804-9.967 4.804-6.558 0-10.583-3.408-10.583-8.426 0-4.473 2.865-8.212 11.198-8.212h9.21v-1.775c0-4.97-2.817-7.668-8.215-7.668-3.741 0-7.269 1.325-9.66 3.408l-1.775-2.91c2.912-2.486 7.22-3.906 11.79-3.906 7.505 0 11.742 3.74 11.742 11.242Zm-3.906 9.253v-4.733h-9.091c-5.635 0-7.434 2.201-7.434 5.183 0 3.36 2.699 5.467 7.339 5.467 4.38-.024 7.647-2.106 9.186-5.917Zm10.251-28.376c0-1.278.995-2.32 2.321-2.32 1.278 0 2.272.995 2.272 2.32 0 1.373-.994 2.367-2.272 2.367-1.326 0-2.321-1.041-2.321-2.367Zm3.978 8.094h3.906V83.09h-3.906V54.098Zm3.362-8.094c0-1.278.994-2.32 2.249-2.32 1.326 0 2.32.995 2.32 2.32 0 1.373-.994 2.367-2.32 2.367-1.255 0-2.249-1.041-2.249-2.367Zm11.577 8.094h3.906V66.95h18.254V54.1h3.906v28.99h-3.906V70.31h-18.254v12.78h-3.906V54.1Zm34.4 14.508c0-8.662 6.297-14.721 14.939-14.721 4.9 0 9.043 1.917 11.364 5.727l-2.912 1.988c-1.989-2.91-5.067-4.307-8.429-4.307-6.345 0-10.961 4.52-10.961 11.29 0 6.839 4.64 11.288 10.961 11.288 3.362 0 6.44-1.325 8.429-4.236l2.912 1.988c-2.321 3.74-6.44 5.727-11.364 5.727-8.665.024-14.939-6.106-14.939-14.744Zm57.435 4.994c0 6.177-4.19 9.632-11.908 9.537l-11.696-.047V54.098h3.906v10.13l8.547.118c7.292.07 11.151 3.313 11.151 9.254Zm-3.954 0c0-4.308-2.746-6.272-8.168-6.343l-7.552-.119v12.899l7.552.118c5.351.071 8.168-2.2 8.168-6.555Zm21.947-3.408h-6.605V83.09h-3.907V54.098h3.907v12.733h6.676l10.204-12.733h4.238l-11.411 14.058 12.239 14.934h-4.64l-10.701-12.898Zm42.662-5.065V83.09h-3.74v-4.52c-1.776 2.981-5.185 4.804-9.968 4.804-6.558 0-10.582-3.408-10.582-8.426 0-4.473 2.864-8.212 11.198-8.212h9.21v-1.775c0-4.97-2.818-7.668-8.216-7.668-3.74 0-7.268 1.325-9.659 3.408l-1.776-2.91c2.912-2.486 7.221-3.906 11.79-3.906 7.505 0 11.743 3.74 11.743 11.242Zm-3.906 9.253v-4.733h-9.091c-5.635 0-7.434 2.201-7.434 5.183 0 3.36 2.699 5.467 7.339 5.467 4.38-.024 7.623-2.106 9.186-5.917Zm-200.906 49.487c0 8.213-5.943 13.159-15.768 13.159h-10.369v12.188h-4.072v-38.576h14.441c9.802 0 15.768 4.97 15.768 13.229Zm-4.096 0c0-6.177-4.072-9.703-11.79-9.703h-10.251v19.288h10.251c7.718 0 11.79-3.526 11.79-9.585Zm8.547 10.863c0-8.591 6.297-14.72 14.773-14.72 8.476 0 14.726 6.106 14.726 14.72 0 8.615-6.227 14.768-14.726 14.768s-14.773-6.177-14.773-14.768Zm25.545 0c0-6.768-4.569-11.289-10.748-11.289-6.179 0-10.796 4.521-10.796 11.289 0 6.769 4.64 11.289 10.796 11.289 6.155 0 10.748-4.52 10.748-11.289Zm32.695 6.177c0 5.231-5.8 8.662-13.021 8.662-4.143 0-8.381-1.207-11.459-3.573l1.326-2.911c2.699 2.035 6.44 3.147 9.967 3.147 5.232 0 9.163-2.082 9.163-5.632 0-3.077-2.984-4.899-7.837-4.899h-4.972v-2.864h4.735c4.238 0 7.221-1.704 7.221-4.568 0-3.195-3.409-4.97-8.049-4.97-2.983 0-6.179.781-9.257 2.367l-1.113-3.029c3.575-1.87 7.221-2.698 10.749-2.698 6.605 0 11.695 3.029 11.695 7.762 0 3.03-2.273 5.349-5.635 6.438 4.096.923 6.487 3.337 6.487 6.768Zm33.501-20.66-14.49 32.447c-2.414 5.68-5.516 7.502-9.635 7.502-2.699 0-5.304-.876-7.056-2.651l1.823-2.911c1.444 1.444 3.196 2.201 5.304 2.201 2.58 0 4.356-1.207 6.013-4.851l1.279-2.817-12.951-28.92h4.072l10.915 24.637 10.914-24.637h3.812Zm38.542 0v28.991h-3.575v-22.933l-11.742 19.407h-1.776l-11.743-19.454v22.98h-3.575v-28.991h3.978l12.287 20.897 12.524-20.897h3.622Zm11.151 0h3.907v12.851h18.253v-12.851h3.907v28.991h-3.907v-12.78h-18.253v12.78h-3.907v-28.991Zm58.927 11.004v17.963h-3.74v-4.52c-1.776 2.982-5.185 4.804-9.968 4.804-6.558 0-10.582-3.408-10.582-8.425 0-4.473 2.864-8.212 11.198-8.212h9.21v-1.775c0-4.97-2.818-7.668-8.216-7.668-3.74 0-7.268 1.325-9.635 3.408l-1.776-2.911c2.912-2.485 7.221-3.905 11.79-3.905 7.481 0 11.719 3.763 11.719 11.241Zm-3.906 9.254v-4.733h-9.091c-5.635 0-7.434 2.201-7.434 5.183 0 3.36 2.699 5.467 7.339 5.467 4.38 0 7.623-2.107 9.186-5.917ZM30.624 205.044H9.127l-4.64 10.295H.249l17.638-38.577h4.024l17.638 38.577h-4.308l-4.617-10.295Zm-1.492-3.29-9.257-20.708-9.257 20.708h18.514Zm41.242 5.728c0 5.017-3.646 7.881-11.198 7.881H45.99v-28.992h12.785c6.558 0 10.582 2.651 10.582 7.431 0 3.243-1.87 5.467-4.9 6.556 4.024.947 5.918 3.313 5.918 7.124Zm-20.573-8.213h8.712c4.475 0 6.937-1.704 6.937-4.97 0-3.242-2.486-4.851-6.937-4.851h-8.712v9.821Zm16.714 8c0-3.479-2.201-5.065-7.102-5.065h-9.589v10.082h9.21c4.877-.024 7.481-1.562 7.481-5.017ZM99.92 189.85H88.96v25.513h-3.906V189.85H74.09v-3.479h25.853v3.479h-.023Zm1.539 11.005c0-8.591 6.298-14.72 14.774-14.72 8.475 0 14.726 6.106 14.726 14.72 0 8.615-6.227 14.768-14.726 14.768-8.5 0-14.774-6.153-14.774-14.768Zm25.522 0c0-6.768-4.569-11.289-10.748-11.289-6.18 0-10.796 4.521-10.796 11.289 0 6.769 4.64 11.289 10.796 11.289 6.179.024 10.748-4.496 10.748-11.289Zm44.77-14.484v28.992h-3.575V192.43l-11.743 19.406h-1.776l-11.743-19.454v22.981h-3.575v-28.992h3.978l12.287 20.898 12.524-20.898h3.623Zm32.861 11.029v17.963h-3.741v-4.52c-1.776 2.982-5.185 4.804-9.967 4.804-6.558 0-10.583-3.408-10.583-8.425 0-4.473 2.865-8.213 11.198-8.213h9.21v-1.775c0-4.97-2.817-7.668-8.215-7.668-3.741 0-7.269 1.326-9.66 3.408l-1.775-2.911c2.912-2.485 7.22-3.905 11.79-3.905 7.505 0 11.743 3.74 11.743 11.242Zm-3.907 9.254v-4.734h-9.091c-5.635 0-7.434 2.201-7.434 5.183 0 3.361 2.699 5.467 7.339 5.467 4.38-.023 7.647-2.106 9.186-5.916Zm34.731-16.804h-10.961v25.513h-3.907V189.85h-10.961v-3.479h25.853v3.479h-.024Zm5.682-3.479h3.907v23.028l19.342-23.028h3.48v28.992h-3.906v-23.028l-19.295 23.028h-3.528v-28.992Zm48.463 16.093h-6.605v12.899h-3.907v-28.992h3.907v12.733h6.676l10.204-12.733h4.238l-11.411 14.058 12.239 14.934h-4.64l-10.701-12.899Zm42.662-5.064v17.963h-3.74v-4.52c-1.776 2.982-5.185 4.804-9.968 4.804-6.558 0-10.582-3.408-10.582-8.425 0-4.473 2.864-8.213 11.198-8.213h9.21v-1.775c0-4.97-2.818-7.668-8.216-7.668-3.74 0-7.268 1.326-9.635 3.408l-1.776-2.911c2.912-2.485 7.221-3.905 11.79-3.905 7.481 0 11.719 3.74 11.719 11.242Zm-3.906 9.254v-4.734h-9.091c-5.635 0-7.434 2.201-7.434 5.183 0 3.361 2.699 5.467 7.339 5.467 4.38-.023 7.623-2.106 9.186-5.916Zm275.222-83.047 16.312-5.727c5.09-1.799 7.789-7.384 6.014-12.496l-11.554-32.968a9.834 9.834 0 0 0-4.995-5.585 9.78 9.78 0 0 0-7.482-.426l-16.312 5.727c-2.272.805-4.829.024-6.25-1.893a104.069 104.069 0 0 0-13.21-14.745c-1.776-1.633-2.25-4.212-1.184-6.413l7.505-15.573c2.344-4.875.284-10.745-4.593-13.088L536.322 5.274c-4.877-2.343-10.748-.284-13.092 4.591l-7.505 15.573c-1.066 2.2-3.386 3.431-5.777 3.077-6.534-.995-13.187-1.35-19.769-1.113-2.367.095-4.569-1.42-5.374-3.692l-5.729-16.306c-1.8-5.089-7.387-7.787-12.501-6.012l-32.979 11.55a9.835 9.835 0 0 0-5.587 4.994 9.762 9.762 0 0 0-.426 7.478l5.729 16.306c.805 2.273.024 4.828-1.894 6.248a104.126 104.126 0 0 0-14.75 13.206c-1.633 1.776-4.214 2.249-6.416 1.184l-15.578-7.503c-4.877-2.343-10.748-.284-13.092 4.592L366.43 90.924c-2.344 4.875-.284 10.744 4.593 13.087l15.578 7.502c2.202 1.065 3.433 3.385 3.078 5.775-.995 6.532-1.35 13.182-1.113 19.762.095 2.366-1.42 4.591-3.693 5.372l-16.312 5.727c-5.09 1.799-7.789 7.384-6.014 12.496l11.554 32.968c1.799 5.088 7.386 7.786 12.5 6.011l16.312-5.727c2.273-.805 4.83-.024 6.25 1.893a104.11 104.11 0 0 0 13.211 14.745c1.776 1.633 2.249 4.212 1.184 6.413l-7.505 15.573c-2.344 4.875-.284 10.745 4.593 13.088l31.488 15.146c4.877 2.343 10.748.284 13.092-4.591l7.505-15.573c1.065-2.201 3.385-3.431 5.777-3.076 6.534.994 13.163 1.349 19.768 1.112 2.344-.095 4.57 1.42 5.374 3.692l5.73 16.306a9.833 9.833 0 0 0 4.995 5.586c1.35.639 2.794.97 4.238.97a9.652 9.652 0 0 0 3.244-.568l32.979-11.549a9.837 9.837 0 0 0 5.587-4.994 9.763 9.763 0 0 0 .426-7.479l-5.729-16.306c-.805-2.296-.047-4.804 1.894-6.248a104.107 104.107 0 0 0 14.75-13.206c1.633-1.775 4.214-2.248 6.415-1.183l15.579 7.502a9.777 9.777 0 0 0 7.481.426 9.837 9.837 0 0 0 5.587-4.994l15.152-31.476c2.344-4.876.284-10.745-4.593-13.088l-15.578-7.502c-2.202-1.065-3.433-3.385-3.078-5.775.995-6.532 1.35-13.182 1.113-19.762-.071-2.366 1.444-4.591 3.717-5.372Zm-7.955 5.538a101.649 101.649 0 0 1-1.065 18.957c-.639 4.26 1.539 8.354 5.445 10.248l15.578 7.502c2.747 1.325 3.907 4.639 2.581 7.384l-15.152 31.477c-.639 1.325-1.752 2.343-3.149 2.816a5.49 5.49 0 0 1-4.238-.237l-15.578-7.502c-3.906-1.87-8.476-1.018-11.411 2.13a102.69 102.69 0 0 1-14.158 12.662c-3.456 2.556-4.806 7.005-3.385 11.076l5.729 16.306c.497 1.396.402 2.887-.237 4.236-.639 1.326-1.752 2.343-3.149 2.817l-32.979 11.549a5.49 5.49 0 0 1-4.238-.237c-1.326-.639-2.344-1.751-2.817-3.147l-5.729-16.307c-1.397-3.952-5.043-6.555-9.186-6.555h-.379a101.779 101.779 0 0 1-18.964-1.065c-4.261-.639-8.357 1.538-10.251 5.443l-7.505 15.573a5.541 5.541 0 0 1-7.387 2.579l-31.487-15.146c-2.747-1.326-3.907-4.639-2.581-7.384l7.505-15.573c1.87-3.905 1.018-8.473-2.131-11.407a102.737 102.737 0 0 1-12.666-14.153c-2.557-3.455-7.008-4.804-11.08-3.384l-16.312 5.727c-2.888 1.018-6.061-.521-7.055-3.384l-11.554-32.968c-.497-1.396-.402-2.887.237-4.236.639-1.326 1.752-2.343 3.149-2.817l16.312-5.727c4.072-1.42 6.724-5.278 6.558-9.561a101.644 101.644 0 0 1 1.065-18.957c.64-4.26-1.539-8.355-5.445-10.248l-15.578-7.502c-2.746-1.325-3.906-4.639-2.581-7.384l15.152-31.477c.64-1.325 1.752-2.343 3.149-2.816a5.49 5.49 0 0 1 4.238.236l15.578 7.503c3.907 1.87 8.476 1.018 11.411-2.13A102.707 102.707 0 0 1 434.022 51.4c3.457-2.556 4.806-7.005 3.386-11.076l-5.73-16.306c-.497-1.396-.402-2.887.237-4.236a5.354 5.354 0 0 1 3.149-2.817l32.979-11.55c2.889-1.017 6.061.521 7.055 3.385l5.73 16.306a9.752 9.752 0 0 0 9.565 6.556c6.321-.236 12.689.119 18.963 1.065 4.262.64 8.357-1.538 10.251-5.443l7.506-15.573a5.54 5.54 0 0 1 7.386-2.58l31.488 15.147c2.746 1.326 3.906 4.639 2.58 7.384l-7.505 15.573c-1.87 3.905-1.018 8.473 2.131 11.407a102.617 102.617 0 0 1 12.666 14.153c2.557 3.455 7.008 4.804 11.08 3.384l16.312-5.727a5.49 5.49 0 0 1 4.238.236c1.326.64 2.344 1.752 2.817 3.148l11.554 32.968c1.018 2.887-.521 6.058-3.386 7.052l-16.312 5.728c-4.096 1.42-6.723 5.277-6.558 9.561Z" fill="#fff"/><path d="M559.831 89.717a1.348 1.348 0 0 0-.284-.355 2.134 2.134 0 0 0-1.894-.592 1.98 1.98 0 0 0-1.113.592l-5.918 5.916c-.427.426-.64.994-.616 1.586l1.515 36.825-10.251 10.248c-2.391-1.846-5.374-2.982-8.618-2.982-7.742 0-14.039 6.295-14.039 14.034 0 7.739 6.297 14.035 14.039 14.035s14.039-6.296 14.039-14.035c0-2.958-.923-5.703-2.485-7.975l11.009-11.005c.426-.426.639-.994.615-1.586l-1.515-36.825 3.362-3.361a74.263 74.263 0 0 1 6.723 14.2c13.566 38.671-6.889 81.177-45.574 94.714-24.054 8.425-50.996 3.81-70.883-11.975l11.648-11.644c.403-.403.616-.947.616-1.515v-25.016l33.263-33.251a13.96 13.96 0 0 0 7.908 2.437c7.741 0 14.039-6.295 14.039-14.034 0-7.739-6.298-14.034-14.039-14.034-7.742 0-14.04 6.295-14.04 14.034 0 3.266 1.137 6.295 3.031 8.686l-33.785 33.772a2.13 2.13 0 0 0-.615 1.515v25.015l-13.045 13.041a2.126 2.126 0 0 0 0 3.005c.426.426.971.616 1.515.616 14.229 11.62 31.961 17.773 49.931 17.773a78.614 78.614 0 0 0 25.877-4.378c40.91-14.318 62.525-59.261 48.178-100.157a78.79 78.79 0 0 0-8.594-17.324Zm-27.179 75.047c-5.398 0-9.778-4.379-9.778-9.775 0-5.396 4.38-9.774 9.778-9.774 5.398 0 9.778 4.378 9.778 9.774 0 5.373-4.404 9.775-9.778 9.775Zm-31.274-66.362c5.398 0 9.777 4.379 9.777 9.775 0 5.396-4.379 9.774-9.777 9.774s-9.778-4.378-9.778-9.774c0-5.396 4.38-9.775 9.778-9.775Z" fill="#fff"/><path d="M449.08 125.24c2.391 1.846 5.374 2.982 8.617 2.982 7.742 0 14.039-6.295 14.039-14.034 0-7.739-6.297-14.035-14.039-14.035-7.741 0-14.039 6.296-14.039 14.035 0 2.958.923 5.703 2.486 7.975l-11.009 11.005a2.106 2.106 0 0 0-.616 1.586l1.516 36.825-3.268 3.266c-3.622-5.301-6.534-11.099-8.688-17.229-13.566-38.671 6.889-81.177 45.574-94.714 25.19-8.827 53.008-3.502 73.156 13.869l-12.051 12.046a2.13 2.13 0 0 0-.615 1.515v25.015l-33.264 33.252a13.96 13.96 0 0 0-7.907-2.438c-7.742 0-14.039 6.296-14.039 14.035s6.297 14.034 14.039 14.034 14.039-6.295 14.039-14.034c0-3.266-1.136-6.296-3.03-8.686l33.784-33.772c.402-.403.615-.947.615-1.515V91.207l13.045-13.04c.024-.023.024-.047.048-.047 0 0 .023 0 .023-.024.024-.023.024-.047.048-.07.071-.096.142-.166.189-.261.024-.024.024-.047.048-.071.047-.095.094-.19.142-.308 0-.023.023-.047.023-.07.024-.096.071-.214.071-.332v-.071c.024-.118.024-.213.024-.331v-.072c0-.118-.024-.213-.048-.33 0-.025-.023-.072-.023-.096-.024-.094-.047-.189-.095-.284-.024-.047-.047-.07-.047-.118-.047-.094-.095-.166-.142-.26-.024-.047-.071-.071-.095-.118-.047-.048-.095-.119-.142-.166l-.047-.047-.024-.024a78.588 78.588 0 0 0-79.122-16.212c-40.91 14.319-62.525 59.261-48.178 100.157a78.377 78.377 0 0 0 10.132 19.573c.048.449.261.899.592 1.23.426.426.971.616 1.516.616.544 0 1.089-.213 1.515-.616l5.919-5.916c.426-.426.639-.994.615-1.586l-1.515-36.825 10.228-10.248Zm8.617-20.827c5.398 0 9.778 4.379 9.778 9.775 0 5.396-4.38 9.774-9.778 9.774-5.398 0-9.778-4.378-9.778-9.774 0-5.396 4.38-9.775 9.778-9.775Zm31.251 65.51c-5.398 0-9.778-4.379-9.778-9.775 0-5.396 4.38-9.774 9.778-9.774 5.398 0 9.778 4.378 9.778 9.774 0 5.373-4.38 9.775-9.778 9.775Z" fill="#fff"/></svg>