<svg width="201" height="83" fill="none" xmlns="http://www.w3.org/2000/svg"><path d="M18.724 13.571 13.12 23.656c-.81 1.47-1.939 2.126-3.159 2.126-.492 0-1.007-.118-1.514-.324l.37-1.03c.41.155.796.243 1.167.243.742 0 1.432-.36 1.992-1.287l.356-.581-5.006-9.232h1.393l4.303 8.12 4.408-8.12h1.295Zm4.749 7.981H21.36v4.009h-1.25v-9.01h1.25v3.957h2.136l3.264-3.958h1.356l-3.65 4.37 3.915 4.64h-1.484l-3.424-4.008Zm16.277-.492c0 2.743-1.976 4.59-4.62 4.59-1.484 0-2.75-.618-3.53-1.78v5.016h-1.25V16.55h1.197v1.78c.758-1.2 2.046-1.847 3.583-1.847 2.651 0 4.62 1.847 4.62 4.576Zm-1.25 0c0-2.09-1.499-3.51-3.453-3.51-1.977 0-3.454 1.42-3.454 3.51 0 2.103 1.485 3.508 3.454 3.508 1.954 0 3.454-1.405 3.454-3.508Zm10.847-1.082v5.583h-1.196v-1.405c-.568.927-1.66 1.494-3.19 1.494-2.097 0-3.385-1.06-3.385-2.62 0-1.39.917-2.552 3.583-2.552h2.946v-.551c0-1.545-.901-2.383-2.628-2.383-1.197 0-2.325.412-3.09 1.059l-.568-.905c.931-.772 2.31-1.214 3.772-1.214 2.4 0 3.756 1.163 3.756 3.494Zm-1.25 2.876v-1.47H45.19c-1.803 0-2.378.683-2.378 1.61 0 1.045.863 1.7 2.348 1.7 1.401-.008 2.446-.655 2.939-1.84Zm3.28-8.819c0-.397.318-.721.742-.721a.71.71 0 0 1 .728.72.714.714 0 0 1-.727.736.727.727 0 0 1-.743-.735Zm1.273 2.515h1.25v9.011h-1.25v-9.01Zm1.075-2.515c0-.397.318-.721.72-.721.424 0 .742.309.742.72a.718.718 0 0 1-.742.736.722.722 0 0 1-.72-.735Zm3.705 2.515h1.25v3.994h5.839V16.55h1.25v9.01h-1.25v-3.97h-5.84v3.972h-1.25v-9.01Zm11.005 4.51c0-2.693 2.015-4.576 4.78-4.576 1.567 0 2.893.596 3.635 1.78l-.932.618c-.636-.904-1.62-1.338-2.696-1.338-2.03 0-3.507 1.404-3.507 3.508 0 2.126 1.484 3.509 3.507 3.509 1.075 0 2.06-.412 2.696-1.317l.932.618c-.742 1.162-2.06 1.78-3.636 1.78-2.772.008-4.78-1.898-4.78-4.582Zm18.375 1.551c0 1.92-1.34 2.994-3.81 2.965l-3.741-.015v-9.01h1.25v3.148l2.734.036c2.333.022 3.568 1.03 3.568 2.876Zm-1.264 0c0-1.338-.88-1.949-2.614-1.971l-2.416-.037v4.009l2.416.037c1.712.022 2.614-.684 2.614-2.038Zm7.021-1.059h-2.113v4.009h-1.25v-9.01h1.25v3.957h2.136l3.264-3.958h1.356l-3.65 4.37 3.915 4.64h-1.484l-3.424-4.008Zm13.649-1.574v5.583h-1.197v-1.405c-.568.927-1.659 1.494-3.189 1.494-2.098 0-3.385-1.06-3.385-2.62 0-1.39.916-2.552 3.582-2.552h2.947v-.551c0-1.545-.902-2.383-2.628-2.383-1.197 0-2.326.412-3.09 1.059l-.569-.905c.932-.772 2.31-1.214 3.772-1.214 2.401 0 3.757 1.163 3.757 3.494Zm-1.25 2.876v-1.47h-2.908c-1.803 0-2.379.683-2.379 1.61 0 1.045.864 1.7 2.348 1.7 1.402-.008 2.439-.655 2.939-1.84ZM40.69 38.235c0 2.552-1.902 4.09-5.045 4.09h-3.318v3.788h-1.302v-11.99h4.62c3.136 0 5.044 1.545 5.044 4.112Zm-1.31 0c0-1.92-1.304-3.016-3.773-3.016h-3.28v5.995h3.28c2.47 0 3.772-1.096 3.772-2.98Zm2.734 3.376c0-2.67 2.015-4.575 4.726-4.575 2.712 0 4.711 1.898 4.711 4.575 0 2.678-1.992 4.59-4.71 4.59-2.72 0-4.727-1.92-4.727-4.59Zm8.172 0c0-2.104-1.461-3.508-3.438-3.508s-3.454 1.404-3.454 3.508 1.484 3.509 3.454 3.509c1.969 0 3.438-1.405 3.438-3.509Zm10.461 1.919c0 1.626-1.856 2.693-4.166 2.693-1.326 0-2.682-.375-3.666-1.11l.424-.905c.863.632 2.06.978 3.189.978 1.674 0 2.931-.648 2.931-1.75 0-.957-.954-1.523-2.507-1.523h-1.59v-.89h1.514c1.356 0 2.31-.53 2.31-1.42 0-.993-1.09-1.545-2.575-1.545-.954 0-1.977.243-2.962.736l-.356-.942a7.542 7.542 0 0 1 3.44-.838c2.113 0 3.741.941 3.741 2.412 0 .942-.727 1.663-1.803 2.001 1.31.287 2.076 1.037 2.076 2.104Zm10.718-6.42-4.636 10.084c-.772 1.765-1.765 2.332-3.082 2.332-.864 0-1.697-.273-2.258-.824l.584-.905a2.344 2.344 0 0 0 1.696.684c.826 0 1.394-.375 1.924-1.508l.41-.875-4.144-8.989h1.303l3.492 7.658 3.491-7.658h1.22Zm12.331 0v9.01h-1.144v-7.128l-3.757 6.032h-.568l-3.757-6.046v7.142h-1.143v-9.01h1.272l3.931 6.494 4.007-6.495h1.16Zm3.567 0h1.25v3.993h5.84V37.11h1.25v9.011h-1.25v-3.972h-5.84v3.972h-1.25v-9.01Zm18.853 3.42v5.583h-1.197v-1.405c-.568.927-1.659 1.493-3.189 1.493-2.098 0-3.385-1.06-3.385-2.619 0-1.39.916-2.552 3.582-2.552h2.947v-.552c0-1.544-.902-2.383-2.628-2.383-1.197 0-2.326.412-3.083 1.06l-.568-.905c.931-.773 2.31-1.214 3.772-1.214 2.393 0 3.749 1.17 3.749 3.494Zm-1.25 2.876v-1.471h-2.908c-1.803 0-2.379.684-2.379 1.61 0 1.045.864 1.7 2.348 1.7 1.402 0 2.439-.655 2.939-1.84ZM9.718 63.465H2.84l-1.484 3.2H0l5.643-11.99h1.288l5.643 11.99h-1.379l-1.477-3.2Zm-.477-1.023-2.962-6.436-2.961 6.436H9.24Zm13.194 1.78c0 1.56-1.166 2.45-3.582 2.45h-4.22v-9.01h4.09c2.099 0 3.387.823 3.387 2.309 0 1.008-.599 1.699-1.568 2.037 1.287.294 1.893 1.03 1.893 2.214Zm-6.582-2.552h2.787c1.432 0 2.22-.53 2.22-1.545 0-1.007-.796-1.508-2.22-1.508h-2.787v3.053Zm5.348 2.486c0-1.081-.705-1.574-2.273-1.574h-3.067v3.134h2.946c1.56-.008 2.394-.486 2.394-1.56Zm10.687-5.414h-3.507v7.93h-1.25v-7.93h-3.506v-1.08h8.27v1.08h-.007Zm.492 3.421c0-2.67 2.015-4.576 4.727-4.576s4.711 1.898 4.711 4.576c0 2.677-1.992 4.59-4.71 4.59-2.72 0-4.727-1.913-4.727-4.59Zm8.166 0c0-2.104-1.462-3.509-3.439-3.509s-3.454 1.405-3.454 3.509c0 2.103 1.485 3.508 3.454 3.508 1.977.008 3.439-1.397 3.439-3.508Zm14.324-4.502v9.01h-1.144v-7.127l-3.757 6.032H49.4l-3.757-6.046v7.142H44.5v-9.01h1.273l3.93 6.494 4.008-6.495h1.159Zm10.513 3.428v5.582h-1.197v-1.404c-.568.926-1.659 1.493-3.189 1.493-2.098 0-3.386-1.06-3.386-2.619 0-1.39.917-2.552 3.583-2.552h2.947v-.552c0-1.544-.902-2.383-2.629-2.383-1.197 0-2.325.412-3.09 1.06l-.568-.906c.931-.772 2.31-1.213 3.772-1.213 2.4 0 3.757 1.162 3.757 3.494Zm-1.25 2.876v-1.471h-2.909c-1.802 0-2.378.684-2.378 1.61 0 1.045.864 1.7 2.348 1.7 1.401-.008 2.447-.655 2.939-1.84Zm11.111-5.223h-3.507v7.93h-1.25v-7.93h-3.506v-1.08h8.27v1.08h-.007Zm1.818-1.081h1.25v7.157l6.188-7.157h1.114v9.01h-1.25v-7.156l-6.173 7.157h-1.129v-9.01Zm15.505 5.002h-2.113v4.009h-1.25v-9.01h1.25v3.956h2.136l3.264-3.957h1.356l-3.65 4.37 3.915 4.64h-1.484l-3.424-4.008Zm13.649-1.574v5.582h-1.197v-1.404c-.568.926-1.659 1.493-3.189 1.493-2.098 0-3.385-1.06-3.385-2.619 0-1.39.916-2.552 3.582-2.552h2.947v-.552c0-1.544-.902-2.383-2.628-2.383-1.197 0-2.326.412-3.083 1.06l-.568-.906c.931-.772 2.31-1.213 3.772-1.213 2.393 0 3.749 1.162 3.749 3.494Zm-1.25 2.876v-1.471h-2.908c-1.803 0-2.379.684-2.379 1.61 0 1.045.864 1.7 2.348 1.7 1.402-.008 2.439-.655 2.939-1.84Zm88.053-25.811 5.219-1.78c1.628-.56 2.492-2.295 1.924-3.884l-3.697-10.246a3.087 3.087 0 0 0-1.598-1.736 3.213 3.213 0 0 0-2.394-.133l-5.218 1.78a1.797 1.797 0 0 1-2-.588 32.736 32.736 0 0 0-4.226-4.582 1.654 1.654 0 0 1-.379-1.994l2.401-4.84c.75-1.515.091-3.34-1.47-4.067l-10.074-4.708c-1.56-.728-3.438-.088-4.188 1.427l-2.401 4.84a1.772 1.772 0 0 1-1.848.956 35.017 35.017 0 0 0-6.325-.346 1.767 1.767 0 0 1-1.719-1.147l-1.834-5.068c-.575-1.581-2.363-2.42-3.999-1.868l-10.551 3.59a3.12 3.12 0 0 0-1.788 1.551 2.958 2.958 0 0 0-.136 2.325l1.833 5.068c.258.706.008 1.5-.606 1.941a33.002 33.002 0 0 0-4.719 4.105 1.777 1.777 0 0 1-2.052.368l-4.984-2.332c-1.561-.728-3.439-.088-4.189 1.427l-4.848 9.783c-.75 1.515-.091 3.34 1.47 4.068l4.984 2.331c.704.331 1.098 1.052.984 1.795a32.16 32.16 0 0 0-.356 6.142c.031.736-.454 1.427-1.181 1.67l-5.219 1.78c-1.628.559-2.492 2.295-1.924 3.884l3.696 10.246c.576 1.581 2.364 2.42 4 1.868l5.219-1.78a1.796 1.796 0 0 1 1.999.589 32.684 32.684 0 0 0 4.227 4.582c.568.508.719 1.31.378 1.994l-2.401 4.84c-.75 1.515-.091 3.339 1.47 4.067l10.074 4.708c1.56.728 3.439.088 4.188-1.427l2.402-4.84a1.77 1.77 0 0 1 1.848-.956 35.01 35.01 0 0 0 6.324.345c.75-.03 1.462.442 1.72 1.148l1.833 5.068c.28.765.848 1.383 1.598 1.736a3.164 3.164 0 0 0 2.393.125l10.552-3.59a3.117 3.117 0 0 0 1.787-1.552c.364-.735.409-1.56.137-2.324l-1.833-5.068a1.673 1.673 0 0 1 .606-1.942 33 33 0 0 0 4.718-4.105 1.779 1.779 0 0 1 2.053-.367l4.984 2.331a3.213 3.213 0 0 0 2.394.133 3.117 3.117 0 0 0 1.787-1.552l4.848-9.783c.75-1.515.091-3.34-1.47-4.068l-4.984-2.332c-.704-.33-1.098-1.051-.984-1.794a32.16 32.16 0 0 0 .356-6.142c-.023-.736.462-1.427 1.189-1.67Zm-2.545 1.721a30.688 30.688 0 0 1-.341 5.892c-.205 1.324.492 2.597 1.742 3.185l4.984 2.332c.879.412 1.25 1.441.826 2.295l-4.848 9.783c-.204.412-.56.728-1.007.875a1.804 1.804 0 0 1-1.356-.073l-4.984-2.332a3.185 3.185 0 0 0-3.651.662 32.564 32.564 0 0 1-4.53 3.935 2.971 2.971 0 0 0-1.083 3.442l1.833 5.068c.159.434.129.898-.075 1.317a1.724 1.724 0 0 1-1.008.875l-10.551 3.59a1.804 1.804 0 0 1-1.356-.074 1.704 1.704 0 0 1-.901-.978l-1.833-5.068a3.107 3.107 0 0 0-2.939-2.037h-.121a33.467 33.467 0 0 1-6.067-.331c-1.364-.199-2.674.478-3.28 1.691l-2.401 4.84c-.424.854-1.485 1.214-2.363.802L135.09 74.86c-.879-.412-1.25-1.442-.826-2.295l2.401-4.84a2.965 2.965 0 0 0-.682-3.546 32.254 32.254 0 0 1-4.052-4.398c-.818-1.074-2.242-1.494-3.545-1.052l-5.219 1.78c-.924.316-1.939-.162-2.257-1.052l-3.696-10.247a1.66 1.66 0 0 1 .076-1.316c.204-.412.56-.728 1.007-.876l5.219-1.78c1.303-.44 2.151-1.64 2.098-2.971a30.686 30.686 0 0 1 .341-5.892c.204-1.324-.493-2.597-1.742-3.185l-4.984-2.332c-.879-.412-1.25-1.441-.826-2.295l4.848-9.783c.204-.412.56-.728 1.007-.875a1.804 1.804 0 0 1 1.356.074l4.984 2.331a3.185 3.185 0 0 0 3.651-.662 32.556 32.556 0 0 1 4.529-3.935 2.968 2.968 0 0 0 1.083-3.442l-1.833-5.068a1.664 1.664 0 0 1 .076-1.317 1.7 1.7 0 0 1 1.008-.875l10.551-3.59c.924-.316 1.939.162 2.257 1.052l1.833 5.068c.454 1.265 1.689 2.082 3.06 2.037 2.022-.073 4.06.037 6.067.331a3.132 3.132 0 0 0 3.28-1.691l2.401-4.84c.424-.854 1.485-1.214 2.363-.802l10.074 4.708c.879.411 1.25 1.441.826 2.294l-2.401 4.84a2.965 2.965 0 0 0 .681 3.546 32.266 32.266 0 0 1 4.053 4.398c.818 1.074 2.242 1.494 3.545 1.052l5.218-1.78a1.804 1.804 0 0 1 1.356.074c.424.198.75.544.902.978l3.696 10.247c.326.897-.167 1.883-1.083 2.191l-5.219 1.78c-1.31.442-2.151 1.64-2.098 2.972Z" fill="#fff"/><path d="M179.029 27.62a.696.696 0 0 0-.697-.294.637.637 0 0 0-.356.184l-1.894 1.84a.647.647 0 0 0-.197.492l.485 11.445-3.28 3.185a4.587 4.587 0 0 0-2.757-.926c-2.477 0-4.491 1.956-4.491 4.361 0 2.406 2.014 4.362 4.491 4.362s4.492-1.956 4.492-4.362a4.28 4.28 0 0 0-.795-2.478l3.522-3.42a.647.647 0 0 0 .197-.494l-.485-11.445 1.075-1.044a22.797 22.797 0 0 1 2.152 4.413c4.34 12.019-2.205 25.23-14.581 29.437-7.696 2.619-16.316 1.184-22.678-3.722l3.727-3.619a.655.655 0 0 0 .197-.47V47.29l10.642-10.335c.719.478 1.59.758 2.529.758 2.477 0 4.492-1.957 4.492-4.362 0-2.406-2.015-4.362-4.492-4.362-2.476 0-4.491 1.956-4.491 4.362 0 1.015.363 1.956.969 2.7l-10.808 10.496a.651.651 0 0 0-.197.47v7.775l-4.174 4.053a.648.648 0 0 0 0 .934.688.688 0 0 0 .485.192c4.552 3.611 10.225 5.524 15.974 5.524a25.82 25.82 0 0 0 8.279-1.361c13.089-4.45 20.004-18.419 15.414-31.129a24.211 24.211 0 0 0-2.749-5.384Zm-8.696 23.325c-1.727 0-3.128-1.36-3.128-3.038 0-1.677 1.401-3.037 3.128-3.037s3.128 1.36 3.128 3.037c0 1.67-1.408 3.038-3.128 3.038ZM160.327 30.32c1.727 0 3.129 1.361 3.129 3.038 0 1.677-1.402 3.038-3.129 3.038s-3.128-1.36-3.128-3.038c0-1.677 1.401-3.038 3.128-3.038Z" fill="#fff"/><path d="M143.596 38.661a4.587 4.587 0 0 0 2.757.927c2.477 0 4.492-1.956 4.492-4.361 0-2.406-2.015-4.362-4.492-4.362s-4.491 1.956-4.491 4.362c0 .919.295 1.772.795 2.478l-3.522 3.42a.64.64 0 0 0-.197.493l.485 11.446-1.046 1.015a22.788 22.788 0 0 1-2.78-5.355c-4.34-12.02 2.205-25.23 14.581-29.437 8.059-2.744 16.959-1.089 23.405 4.31l-3.855 3.744a.651.651 0 0 0-.197.471v7.775L158.889 45.92a4.56 4.56 0 0 0-2.53-.757c-2.477 0-4.492 1.956-4.492 4.362 0 2.405 2.015 4.362 4.492 4.362s4.492-1.957 4.492-4.362a4.265 4.265 0 0 0-.97-2.7L170.69 36.33a.651.651 0 0 0 .197-.47v-7.776l4.173-4.053c.008-.007.008-.014.015-.014 0 0 .008 0 .008-.008.007-.007.008-.015.015-.022.023-.03.045-.051.061-.08.007-.008.007-.015.015-.023.015-.03.03-.059.045-.096 0-.007.008-.014.008-.022.007-.029.023-.066.023-.102v-.023c.007-.036.007-.066.007-.103v-.022c0-.036-.007-.066-.015-.103 0-.007-.008-.022-.008-.03a.383.383 0 0 0-.03-.087c-.007-.015-.015-.022-.015-.037-.015-.03-.03-.052-.045-.081-.008-.015-.023-.022-.031-.037-.015-.014-.03-.037-.045-.051l-.015-.015-.008-.007c-6.855-6.09-16.55-8.018-25.314-5.039-13.088 4.45-20.004 18.418-15.414 31.129a24.132 24.132 0 0 0 3.242 6.083.64.64 0 0 0 .19.383c.136.132.31.19.484.19a.718.718 0 0 0 .485-.19l1.894-1.84a.647.647 0 0 0 .197-.492l-.485-11.446 3.272-3.184Zm2.757-6.472c1.727 0 3.128 1.36 3.128 3.038 0 1.677-1.401 3.037-3.128 3.037s-3.128-1.36-3.128-3.038c0-1.677 1.401-3.037 3.128-3.037Zm9.998 20.36c-1.727 0-3.128-1.36-3.128-3.038 0-1.677 1.401-3.038 3.128-3.038s3.129 1.361 3.129 3.038c0 1.67-1.402 3.038-3.129 3.038Z" fill="#fff"/></svg>