<svg width="20" height="30" viewBox="0 0 20 30" fill="none" xmlns="http://www.w3.org/2000/svg">
<path d="M19 9.375C19 10.4407 18.4588 12.205 17.5191 14.3864C16.6003 16.5193 15.368 18.9031 14.1254 21.1442C12.8846 23.3822 11.6426 25.4617 10.71 26.9828C10.446 27.4134 10.2069 27.7989 10 28.1303C9.79306 27.7989 9.55404 27.4134 9.29002 26.9828C8.35744 25.4617 7.11537 23.3822 5.87457 21.1442C4.63199 18.9031 3.39973 16.5193 2.48091 14.3864C1.54121 12.205 1 10.4407 1 9.375C1 4.80943 4.96766 1 10 1C15.0323 1 19 4.80943 19 9.375Z" stroke="#5A0AFC" stroke-width="2"/>
<ellipse cx="10" cy="9.375" rx="3" ry="2.8125" fill="#5A0AFC"/>
</svg>
