<svg width="24" height="25" viewBox="0 0 24 25" fill="none" xmlns="http://www.w3.org/2000/svg">
<path d="M19.8814 24.2117C19.7762 24.2117 19.671 24.2117 19.5658 24.2117C16.1996 23.7906 12.8335 22.6327 9.99329 20.8431C7.36348 19.1588 5.04924 16.8429 3.36616 14.2112C1.4727 11.369 0.315578 8.00038 0 4.6318C0 3.78965 0.210385 2.94751 0.736347 2.3159C1.26231 1.68429 1.99866 1.26322 2.8402 1.15795C2.94539 1.15795 3.05058 1.15795 3.15578 1.15795H6.31155C7.88944 1.15795 9.25694 2.3159 9.46733 3.89492C9.57252 4.84233 9.7829 5.78975 10.0985 6.63189C10.5192 7.78984 10.2037 9.05306 9.36213 10.0005L8.62578 10.7374C9.8881 12.6322 11.466 14.3165 13.4646 15.5797L14.201 14.8428C15.0425 14.0007 16.41 13.6849 17.5671 14.1059C18.4087 14.4217 19.3554 14.6323 20.3022 14.7375C21.88 14.9481 23.0372 16.3166 23.0372 17.8956V21.0536C23.0372 21.8958 22.7216 22.7379 22.0904 23.2643C21.4593 23.7906 20.7229 24.2117 19.8814 24.2117ZM6.31155 3.26331H3.15578C2.8402 3.26331 2.52462 3.47385 2.31423 3.68438C2.20904 3.89492 2.10385 4.10546 2.10385 4.42126C2.41943 7.47404 3.47135 10.4215 5.15443 13.0532C6.73232 15.4744 8.73098 17.5798 11.1504 19.0535C13.7802 20.7378 16.7256 21.7905 19.7762 22.1063C20.197 22.1063 20.4073 22.001 20.6177 21.7905C20.8281 21.58 20.9333 21.3694 20.9333 21.0536V17.8956C20.9333 17.3692 20.5125 16.9482 19.9866 16.8429C18.9347 16.7376 17.8827 16.4218 16.8308 16.0008C16.41 15.8955 15.9893 15.8955 15.6737 16.2113L14.3062 17.5798C13.9906 17.8956 13.4646 18.0009 13.0439 17.7903C10.2037 16.2113 7.88944 13.8954 6.31155 11.0532C6.20636 10.6321 6.31155 10.1057 6.62713 9.78994L7.99463 8.42145C8.20502 8.21091 8.31021 7.68457 8.20502 7.36877C7.78425 6.31609 7.57386 5.26341 7.36348 4.21073C7.36348 3.68438 6.83751 3.26331 6.31155 3.26331ZM18.8295 10.6321C18.3035 10.6321 17.8827 10.3163 17.7775 9.78994C17.462 8.10565 16.0945 6.84243 14.4114 6.42136C13.8854 6.31609 13.4646 5.78975 13.5698 5.15814C13.675 4.6318 14.201 4.21073 14.8321 4.31599C17.3568 4.84233 19.3554 6.73716 19.7762 9.2636C19.8814 9.78994 19.5658 10.4215 18.9347 10.5268C18.9347 10.5268 18.9347 10.6321 18.8295 10.6321ZM23.0372 10.5268C22.5112 10.5268 22.0904 10.1057 21.9852 9.5794C21.5645 5.68448 18.5139 2.6317 14.5166 2.10536C13.9906 2.00009 13.5698 1.47375 13.5698 0.947413C13.5698 0.421073 14.201 0 14.727 0C19.671 0.526341 23.4579 4.31599 23.9839 9.2636C24.0891 9.78994 23.6683 10.3163 23.0372 10.4215C23.1424 10.5268 23.0372 10.5268 23.0372 10.5268Z" fill="#5A0AFC"/>
</svg>
