<svg xmlns="http://www.w3.org/2000/svg" width="265" height="265" fill="none" xmlns:v="https://vecta.io/nano"><path d="M242.079 123.07l16.347-5.742a9.87 9.87 0 0 0 6.027-12.528l-11.579-33.05c-.877-2.468-2.657-4.46-5.006-5.599-2.372-1.139-5.03-1.281-7.497-.427l-16.348 5.742c-2.277.807-4.84.024-6.263-1.898a104.39 104.39 0 0 0-13.239-14.781c-1.78-1.637-2.254-4.223-1.187-6.43l7.522-15.612c2.348-4.888.284-10.772-4.603-13.121L174.697 4.438c-4.888-2.349-10.772-.285-13.121 4.603l-7.521 15.612c-1.068 2.207-3.393 3.44-5.789 3.084-6.548-.997-13.216-1.352-19.811-1.115-2.373.095-4.579-1.424-5.386-3.701l-5.742-16.347c-1.803-5.101-7.403-7.806-12.527-6.026L71.749 12.126c-2.468.878-4.461 2.657-5.599 5.006-1.139 2.373-1.281 5.03-.427 7.498l5.742 16.347c.807 2.278.024 4.84-1.898 6.264-5.315 3.915-10.297 8.375-14.781 13.239-1.637 1.779-4.223 2.254-6.43 1.186l-15.612-7.521c-4.888-2.349-10.772-.285-13.121 4.603L4.438 90.304c-2.349 4.888-.285 10.771 4.603 13.12l15.612 7.521c2.207 1.068 3.44 3.393 3.085 5.79-.997 6.548-1.352 13.215-1.115 19.811.095 2.373-1.424 4.603-3.701 5.386l-16.347 5.742c-5.101 1.803-7.806 7.402-6.026 12.527l11.578 33.051c1.803 5.101 7.402 7.806 12.527 6.026L41 193.536c2.278-.806 4.84-.023 6.264 1.899 3.915 5.314 8.375 10.297 13.239 14.781 1.779 1.637 2.254 4.223 1.186 6.43l-7.521 15.612c-2.349 4.887-.285 10.771 4.603 13.12l31.556 15.185c4.887 2.349 10.771.285 13.12-4.603l7.521-15.612c1.068-2.206 3.393-3.44 5.79-3.084 6.548.997 13.191 1.352 19.811 1.115 2.349-.095 4.579 1.424 5.386 3.701l5.742 16.348a9.86 9.86 0 0 0 5.006 5.599c1.352.641 2.799.973 4.247.973 1.091 0 2.182-.19 3.25-.569l33.051-11.579a9.86 9.86 0 0 0 5.599-5.006 9.79 9.79 0 0 0 .427-7.498l-5.742-16.347c-.806-2.301-.047-4.816 1.899-6.264a104.35 104.35 0 0 0 14.781-13.239c1.637-1.779 4.223-2.254 6.43-1.186l15.611 7.521c2.373 1.139 5.03 1.281 7.498.427s4.46-2.657 5.599-5.006l15.185-31.556c2.349-4.888.285-10.772-4.603-13.121l-15.612-7.521a5.51 5.51 0 0 1-3.084-5.789c.997-6.549 1.352-13.216 1.115-19.812-.071-2.348 1.447-4.579 3.725-5.385zm-7.972 5.575c.237 6.335-.118 12.717-1.068 19.005-.64 4.271 1.542 8.375 5.457 10.273l15.612 7.522c2.753 1.328 3.915 4.65 2.586 7.402l-15.184 31.556c-.641 1.329-1.756 2.349-3.156 2.824a5.5 5.5 0 0 1-4.247-.238l-15.612-7.521c-3.914-1.874-8.494-1.02-11.436 2.135-4.318 4.651-9.087 8.921-14.188 12.694-3.464 2.562-4.816 7.023-3.393 11.104l5.742 16.347c.498 1.4.403 2.895-.237 4.247-.641 1.329-1.756 2.349-3.156 2.824l-33.05 11.578c-1.4.498-2.919.403-4.247-.237s-2.349-1.756-2.824-3.156l-5.742-16.347c-1.399-3.962-5.053-6.572-9.205-6.572h-.38a101.86 101.86 0 0 1-19.004-1.068c-4.271-.641-8.376 1.542-10.274 5.457l-7.521 15.612c-1.329 2.752-4.65 3.915-7.403 2.586l-31.556-15.185c-2.752-1.328-3.915-4.65-2.586-7.402l7.521-15.612c1.874-3.915 1.02-8.494-2.135-11.436-4.65-4.318-8.921-9.087-12.693-14.189-2.562-3.464-7.023-4.816-11.104-3.392l-16.347 5.741a5.55 5.55 0 0 1-7.07-3.393l-11.578-33.05c-.498-1.4-.403-2.895.237-4.247s1.756-2.349 3.156-2.824l16.347-5.741c4.081-1.424 6.738-5.291 6.572-9.586a101.95 101.95 0 0 1 1.068-19.004c.641-4.271-1.542-8.376-5.457-10.274l-15.612-7.521c-2.752-1.329-3.915-4.65-2.586-7.403l15.185-31.556c.641-1.329 1.756-2.349 3.156-2.823 1.4-.498 2.894-.403 4.247.237l15.612 7.521c3.915 1.874 8.494 1.02 11.436-2.135 4.318-4.65 9.087-8.921 14.188-12.693 3.464-2.562 4.817-7.023 3.393-11.104l-5.742-16.347c-.498-1.4-.403-2.895.237-4.247.641-1.329 1.756-2.349 3.156-2.823l33.051-11.578a5.55 5.55 0 0 1 7.07 3.393l5.742 16.347c1.423 4.081 5.291 6.715 9.585 6.572 6.335-.237 12.717.119 19.005 1.068 4.271.641 8.375-1.542 10.273-5.457l7.522-15.612c1.328-2.752 4.65-3.915 7.402-2.586l31.556 15.185c2.752 1.329 3.915 4.65 2.586 7.403l-7.521 15.612c-1.875 3.915-1.02 8.494 2.135 11.436 4.65 4.318 8.921 9.087 12.694 14.188 2.562 3.464 7.022 4.816 11.103 3.393l16.348-5.742c1.399-.498 2.894-.403 4.247.237 1.328.641 2.349 1.756 2.823 3.156l11.578 33.051a5.55 5.55 0 0 1-3.392 7.07l-16.348 5.742c-4.104 1.423-6.738 5.267-6.572 9.585z" fill="#fff"/><circle cx="133" cy="132" r="72.5" stroke="#fff" stroke-width="5"/></svg>