<svg width="55" height="55" viewBox="0 0 55 55" fill="none" xmlns="http://www.w3.org/2000/svg">
<path d="M49.8225 29.415L47.9775 27.9975V27.5025L49.7775 26.085C50.1375 25.815 50.2275 25.32 50.0025 24.9375L48.09 21.6075C47.9325 21.315 47.6175 21.1575 47.3025 21.1575C47.19 21.1575 47.0775 21.18 46.965 21.225L44.8275 22.08C44.6475 21.9675 44.58 21.9225 44.4 21.8325L44.0625 19.56C43.995 19.0875 43.6125 18.75 43.1625 18.75H39.315C38.865 18.75 38.4825 19.0875 38.415 19.515L38.1 21.7875C38.0325 21.8325 37.9425 21.855 37.875 21.9L37.6725 22.035L35.535 21.18C35.4225 21.135 35.31 21.1125 35.1975 21.1125C34.8825 21.1125 34.59 21.27 34.41 21.5625L32.4975 24.8925C32.2725 25.275 32.3625 25.77 32.7225 26.04L34.5225 27.4575V27.975L32.7225 29.3925C32.3625 29.6625 32.2725 30.1575 32.4975 30.54L34.41 33.87C34.5675 34.1625 34.8825 34.32 35.1975 34.32C35.31 34.32 35.4225 34.2975 35.535 34.2525L37.6725 33.42C37.8525 33.5325 37.9425 33.5775 38.1225 33.6675L38.46 35.94C38.5275 36.39 38.91 36.705 39.36 36.705H43.2075C43.6575 36.705 44.04 36.3675 44.1075 35.94L44.445 33.6675C44.5125 33.6225 44.6025 33.6 44.67 33.555L44.8725 33.42L47.01 34.275C47.1225 34.32 47.235 34.3425 47.3475 34.3425C47.6625 34.3425 47.955 34.185 48.135 33.8925L50.0475 30.5625C50.2725 30.18 50.1825 29.685 49.8225 29.415ZM41.25 31.125C39.3825 31.125 37.875 29.6175 37.875 27.75C37.875 25.8825 39.3825 24.375 41.25 24.375C43.1175 24.375 44.625 25.8825 44.625 27.75C44.625 29.6175 43.1175 31.125 41.25 31.125ZM39 39H43.5V48C43.5 50.475 41.475 52.5 39 52.5H16.5C14.025 52.5 12 50.475 12 48V7.5C12 5.025 14.025 3 16.5 3H39C41.475 3 43.5 5.025 43.5 7.5V16.5H39V14.25H16.5V41.25H39V39Z" fill="#5A0AFC"/>
</svg>
