<svg width="55" height="55" viewBox="0 0 55 55" fill="none" xmlns="http://www.w3.org/2000/svg">
<path d="M16 43.2497C13.525 43.2497 11.5 45.2747 11.5 47.7497H43C43 45.2747 40.975 43.2497 38.5 43.2497H29.5V38.7497H36.25C38.725 38.7497 40.75 36.7247 40.75 34.2497H22.75C19.015 34.2497 16 31.2347 16 27.4997C16 25.0472 17.3275 22.9097 19.285 21.7397C18.6325 20.8172 18.25 19.7147 18.25 18.4997C18.25 18.0272 18.34 17.5547 18.4525 17.1047C14.38 18.7922 11.5 22.8197 11.5 27.4997C11.5 33.7097 16.54 38.7497 22.75 38.7497V43.2497H16Z" fill="#5A0AFC"/>
<path d="M24.01 12.8975C27.0475 12.965 29.5 15.44 29.5 18.5C29.5 20.1875 28.7575 21.6725 27.5875 22.7075L28.915 26.3525L31.03 25.5875L31.795 27.7025L36.025 26.1725L35.26 24.0575L37.375 23.2925L31.21 6.35L29.095 7.115L28.33 5L24.1 6.53L24.865 8.645L22.75 9.4325L24.01 12.8975Z" fill="#5A0AFC"/>
<path d="M23.875 21.875C25.739 21.875 27.25 20.364 27.25 18.5C27.25 16.636 25.739 15.125 23.875 15.125C22.011 15.125 20.5 16.636 20.5 18.5C20.5 20.364 22.011 21.875 23.875 21.875Z" fill="#E6158E"/>
</svg>
