<svg width="23" height="46" viewBox="0 0 23 46" fill="none" xmlns="http://www.w3.org/2000/svg">
<path d="M16 30C16.5304 30 17.0391 30.2107 17.4142 30.5858C17.7893 30.9609 18 31.4696 18 32C18 32.5304 17.7893 33.0391 17.4142 33.4142C17.0391 33.7893 16.5304 34 16 34C15.4696 34 14.9609 33.7893 14.5858 33.4142C14.2107 33.0391 14 32.5304 14 32C14 30.89 14.89 30 16 30ZM0 14H3.27L4.21 16H19C19.2652 16 19.5196 16.1054 19.7071 16.2929C19.8946 16.4804 20 16.7348 20 17C20 17.17 19.95 17.34 19.88 17.5L16.3 23.97C15.96 24.58 15.3 25 14.55 25H7.1L6.2 26.63L6.17 26.75C6.17 26.8163 6.19634 26.8799 6.24322 26.9268C6.29011 26.9737 6.3537 27 6.42 27H18V29H6C5.46957 29 4.96086 28.7893 4.58579 28.4142C4.21071 28.0391 4 27.5304 4 27C4 26.65 4.09 26.32 4.24 26.04L5.6 23.59L2 16H0V14ZM6 30C6.53043 30 7.03914 30.2107 7.41421 30.5858C7.78929 30.9609 8 31.4696 8 32C8 32.5304 7.78929 33.0391 7.41421 33.4142C7.03914 33.7893 6.53043 34 6 34C5.46957 34 4.96086 33.7893 4.58579 33.4142C4.21071 33.0391 4 32.5304 4 32C4 30.89 4.89 30 6 30ZM15 23L17.78 18H5.14L7.5 23H15Z" fill="white" fill-opacity="0.8"/>
<path d="M11.9779 6.504C13.0765 6.61067 13.9139 6.952 14.4899 7.528C15.0659 8.09333 15.3539 8.81867 15.3539 9.704C15.3539 10.344 15.1939 10.9253 14.8739 11.448C14.5539 11.96 14.0739 12.3707 13.4339 12.68C12.8045 12.9787 12.0312 13.128 11.1139 13.128C10.3139 13.128 9.54588 13.0107 8.80988 12.776C8.07388 12.5307 7.47121 12.1947 7.00188 11.768L7.73788 10.504C8.12188 10.8667 8.61254 11.16 9.20988 11.384C9.80721 11.5973 10.4419 11.704 11.1139 11.704C11.9459 11.704 12.5912 11.528 13.0499 11.176C13.5192 10.824 13.7539 10.3387 13.7539 9.72C13.7539 9.10133 13.5245 8.62133 13.0659 8.28C12.6072 7.93867 11.9139 7.768 10.9859 7.768H10.0899V6.648L12.9059 3.192H7.51388V1.8H14.9059V2.888L11.9779 6.504Z" fill="#E6158E"/>
</svg>
