<svg width="54" height="54" viewBox="0 0 54 54" fill="none" xmlns="http://www.w3.org/2000/svg">
<path d="M35.7839 29.3638L31.011 34.1367L44.5025 47.6282L49.2754 42.8553L35.7839 29.3638Z" fill="#E6158E"/>
<path d="M39.3751 22.5C43.7176 22.5 47.2501 18.9675 47.2501 14.625C47.2501 13.32 46.8901 12.105 46.3276 11.025L40.2526 17.1L36.9001 13.7475L42.9751 7.67255C41.8951 7.11005 40.6801 6.75005 39.3751 6.75005C35.0326 6.75005 31.5001 10.2825 31.5001 14.625C31.5001 15.5475 31.6801 16.425 31.9726 17.235L27.8101 21.3975L23.8051 17.3925L25.4026 15.795L22.2301 12.6225L27.0001 7.85255C24.3676 5.22005 20.0926 5.22005 17.4601 7.85255L9.4951 15.8175L12.6676 18.99H6.3226L4.7251 20.5875L12.6901 28.5525L14.2876 26.955V20.5875L17.4601 23.76L19.0576 22.1625L23.0626 26.1675L6.3901 42.8401L11.1601 47.6101L36.7651 22.0275C37.5751 22.32 38.4526 22.5 39.3751 22.5Z" fill="#5A0AFC"/>
</svg>
