<svg width="55" height="54" viewBox="0 0 55 54" fill="none" xmlns="http://www.w3.org/2000/svg">
<path d="M20.75 33.75C14.7425 33.75 2.75 36.765 2.75 42.75V47.25H38.75V42.75C38.75 36.765 26.7575 33.75 20.75 33.75Z" fill="#5A0AFC"/>
<path d="M50.2251 15.39C50.2476 15.1425 50.2701 14.895 50.2701 14.625C50.2701 14.355 50.2476 14.1075 50.2026 13.86L51.8676 12.555C52.0251 12.4425 52.0476 12.2175 51.9576 12.06L50.3826 9.3375C50.2926 9.1575 50.0676 9.1125 49.9101 9.1575L47.9751 9.945C47.5701 9.63 47.1201 9.3825 46.6476 9.18L46.3551 7.0875C46.3101 6.885 46.1526 6.75 45.9501 6.75H42.8001C42.5976 6.75 42.4401 6.885 42.4176 7.0875L42.1251 9.18C41.6526 9.3825 41.2026 9.6525 40.7976 9.945L38.8401 9.1575C38.6601 9.09 38.4576 9.1575 38.3676 9.3375L36.7926 12.06C36.7026 12.24 36.7251 12.4425 36.8826 12.555L38.5476 13.86C38.5026 14.1075 38.4801 14.3775 38.4801 14.625C38.4801 14.8725 38.5026 15.1425 38.5476 15.39L36.8826 16.695C36.7251 16.8075 36.7026 17.0325 36.7926 17.19L38.3676 19.9125C38.4576 20.0925 38.6826 20.1375 38.8401 20.0925L40.7976 19.305C41.2026 19.62 41.6526 19.8675 42.1251 20.07L42.4176 22.1625C42.4401 22.365 42.5976 22.5 42.8001 22.5H45.9501C46.1526 22.5 46.3101 22.365 46.3326 22.1625L46.6251 20.07C47.0976 19.8675 47.5476 19.5975 47.9526 19.305L49.9101 20.0925C50.0901 20.16 50.2926 20.0925 50.3826 19.9125L51.9576 17.19C52.0476 17.01 52.0251 16.8075 51.8676 16.695L50.2251 15.39ZM44.3751 17.4375C42.8226 17.4375 41.5626 16.1775 41.5626 14.625C41.5626 13.0725 42.8226 11.8125 44.3751 11.8125C45.9276 11.8125 47.1876 13.0725 47.1876 14.625C47.1876 16.1775 45.9276 17.4375 44.3751 17.4375Z" fill="#E6158E"/>
<path d="M45.3197 26.28L44.1947 24.3225C44.1272 24.1875 43.9697 24.1425 43.8572 24.1875L42.4622 24.75C42.1697 24.525 41.8547 24.345 41.5172 24.21L41.3147 22.725C41.2697 22.59 41.1347 22.5 40.9997 22.5H38.7497C38.6147 22.5 38.5022 22.59 38.4797 22.7475L38.2772 24.2325C37.9397 24.3675 37.6247 24.57 37.3322 24.7725L35.9372 24.21C35.8022 24.165 35.6672 24.21 35.5997 24.345L34.4747 26.3025C34.4072 26.4375 34.4297 26.5725 34.5422 26.6625L35.7347 27.585C35.7122 27.765 35.6897 27.945 35.6897 28.125C35.6897 28.305 35.7122 28.5075 35.7347 28.665L34.5422 29.5875C34.4297 29.6775 34.4072 29.835 34.4747 29.9475L35.5997 31.905C35.6672 32.04 35.8247 32.085 35.9372 32.04L37.3322 31.4775C37.6247 31.7025 37.9397 31.8825 38.2772 32.0175L38.4797 33.5025C38.5022 33.66 38.6147 33.75 38.7497 33.75H40.9997C41.1347 33.75 41.2697 33.66 41.2697 33.5025L41.4722 32.0175C41.8097 31.8825 42.1247 31.68 42.4172 31.4775L43.8122 32.04C43.9472 32.085 44.0822 32.04 44.1497 31.905L45.2747 29.9475C45.3422 29.8125 45.3197 29.6775 45.2072 29.5875L44.0372 28.665C44.0597 28.485 44.0822 28.305 44.0822 28.125C44.0822 27.945 44.0597 27.7425 44.0372 27.585L45.2297 26.6625C45.3422 26.5725 45.3647 26.415 45.3197 26.28ZM39.8747 29.9925C38.8397 29.9925 38.0072 29.1375 38.0072 28.125C38.0072 27.09 38.8622 26.2575 39.8747 26.2575C40.8872 26.2575 41.7422 27.1125 41.7422 28.125C41.7422 29.16 40.9097 29.9925 39.8747 29.9925Z" fill="#5A0AFC"/>
<path d="M11.165 20.25H30.3575C30.965 20.25 31.46 19.755 31.46 19.1475V19.1025C31.46 18.495 30.965 18 30.3575 18H29.75C29.75 14.67 27.9275 11.8125 25.25 10.2375V12.375C25.25 13.005 24.755 13.5 24.125 13.5C23.495 13.5 23 13.005 23 12.375V9.315C22.28 9.135 21.5375 9 20.75 9C19.9625 9 19.22 9.135 18.5 9.315V12.375C18.5 13.005 18.005 13.5 17.375 13.5C16.745 13.5 16.25 13.005 16.25 12.375V10.2375C13.5725 11.8125 11.75 14.67 11.75 18H11.165C10.5575 18 10.0625 18.495 10.0625 19.1025V19.17C10.0625 19.755 10.5575 20.25 11.165 20.25Z" fill="#5A0AFC"/>
<path d="M20.7499 29.25C24.9349 29.25 28.4224 26.37 29.4349 22.5H12.0649C13.0774 26.37 16.5649 29.25 20.7499 29.25Z" fill="#E6158E"/>
</svg>
