<svg width="55" height="55" viewBox="0 0 55 55" fill="none" xmlns="http://www.w3.org/2000/svg">
<path d="M49.0076 41.6328L37.0826 29.7078H34.8551L29.1401 35.4228V37.6503L41.0651 49.5753C41.9426 50.4528 43.3601 50.4528 44.2376 49.5753L49.0076 44.8053C49.8851 43.9503 49.8851 42.5103 49.0076 41.6328Z" fill="#E6158E"/>
<path d="M39.265 23.6775L42.4375 20.505L47.2075 25.275C49.84 22.6425 49.84 18.3675 47.2075 15.735L39.2425 7.77L36.07 10.9425V4.5975L34.495 3L26.53 10.965L28.1275 12.5625H34.495L31.3225 15.735L33.7075 18.12L27.205 24.6225L17.9125 15.33V12.135L11.1175 5.34L4.75 11.7075L11.5675 18.525H14.74L24.0325 27.8175L22.12 29.73H17.35L5.425 41.655C4.5475 42.5325 4.5475 43.95 5.425 44.8275L10.195 49.5975C11.0725 50.475 12.49 50.475 13.3675 49.5975L25.2925 37.6725V32.9025L36.88 21.315L39.265 23.6775Z" fill="#5A0AFC"/>
</svg>
