<svg width="54" height="55" viewBox="0 0 54 55" fill="none" xmlns="http://www.w3.org/2000/svg">
<path d="M47.25 18.25C43.9875 18.25 42.165 21.49 42.9075 23.8975L34.92 31.9075C34.245 31.705 33.255 31.705 32.58 31.9075L26.8425 26.17C27.6075 23.7625 25.785 20.5 22.5 20.5C19.2375 20.5 17.3925 23.74 18.1575 26.17L7.8975 36.4075C5.49 35.665 2.25 37.4875 2.25 40.75C2.25 43.225 4.275 45.25 6.75 45.25C10.0125 45.25 11.835 42.01 11.0925 39.6025L21.33 29.3425C22.005 29.545 22.995 29.545 23.67 29.3425L29.4075 35.08C28.6425 37.4875 30.465 40.75 33.75 40.75C37.0125 40.75 38.8575 37.51 38.0925 35.08L46.1025 27.0925C48.51 27.835 51.75 26.0125 51.75 22.75C51.75 20.275 49.725 18.25 47.25 18.25Z" fill="#5A0AFC"/>
<path d="M33.75 20.5L35.865 15.8425L40.5 13.75L35.865 11.6575L33.75 7L31.68 11.6575L27 13.75L31.68 15.8425L33.75 20.5Z" fill="#E6158E"/>
<path d="M7.875 25L9 20.5L13.5 19.375L9 18.25L7.875 13.75L6.75 18.25L2.25 19.375L6.75 20.5L7.875 25Z" fill="#E6158E"/>
</svg>
