<svg width="55" height="54" viewBox="0 0 55 54" fill="none" xmlns="http://www.w3.org/2000/svg">
<path d="M50 27L41 36L37.8275 32.8275L41.3825 29.25H29.615C28.85 36.225 24.53 42.12 18.5 45.1125C18.41 48.8025 15.44 51.75 11.75 51.75C8.015 51.75 5 48.735 5 45C5 41.265 8.015 38.25 11.75 38.25C13.8875 38.25 15.755 39.2625 16.9925 40.815C21.2675 38.4975 24.3275 34.2675 25.0475 29.25H18.0725C17.15 31.86 14.675 33.75 11.75 33.75C8.015 33.75 5 30.735 5 27C5 23.265 8.015 20.25 11.75 20.25C14.675 20.25 17.15 22.14 18.095 24.75H25.07C24.35 19.7325 21.2675 15.525 16.9925 13.185C15.755 14.7375 13.8875 15.75 11.75 15.75C8.015 15.75 5 12.735 5 9C5 5.265 8.015 2.25 11.75 2.25C15.44 2.25 18.41 5.1975 18.4775 8.8875C24.5075 11.88 28.8275 17.775 29.5925 24.75H41.36L37.805 21.1725L41 18L50 27Z" fill="#5A0AFC"/>
</svg>
