<svg width="24" height="30" viewBox="0 0 24 30" fill="none" xmlns="http://www.w3.org/2000/svg">
<path d="M12.0555 17.5C13.7078 17.5 15.0316 15.825 15.0316 13.75L15.0416 6.25C15.0416 4.175 13.7078 2.5 12.0555 2.5C10.4032 2.5 9.06937 4.175 9.06937 6.25V13.75C9.06937 15.825 10.4032 17.5 12.0555 17.5ZM17.3309 13.75C17.3309 17.5 14.8027 20.125 12.0555 20.125C9.30826 20.125 6.78002 17.5 6.78002 13.75H5.08789C5.08789 18.0125 7.7953 21.5375 11.0601 22.15V26.25H13.0509V22.15C16.3157 21.55 19.0231 18.025 19.0231 13.75H17.3309Z" fill="white"/>
</svg>
