<svg width="24" height="26" viewBox="0 0 24 26" fill="none" xmlns="http://www.w3.org/2000/svg">
<path d="M19.8814 25.073C19.7762 25.073 19.671 25.073 19.5658 25.073C16.1996 24.6519 12.8335 23.494 9.99329 21.7044C7.36348 20.0201 5.04924 17.7042 3.36616 15.0725C1.4727 12.2303 0.315578 8.86171 0 5.49313C0 4.65098 0.210385 3.80884 0.736347 3.17723C1.26231 2.54562 1.99866 2.12455 2.8402 2.01928C2.94539 2.01928 3.05058 2.01928 3.15578 2.01928H6.31155C7.88944 2.01928 9.25694 3.17723 9.46733 4.75625C9.57252 5.70366 9.7829 6.65107 10.0985 7.49322C10.5192 8.65117 10.2037 9.91439 9.36213 10.8618L8.62578 11.5987C9.8881 13.4935 11.466 15.1778 13.4646 16.441L14.201 15.7041C15.0425 14.862 16.41 14.5462 17.5671 14.9673C18.4087 15.2831 19.3554 15.4936 20.3022 15.5989C21.88 15.8094 23.0372 17.1779 23.0372 18.7569V21.915C23.0372 22.7571 22.7216 23.5992 22.0904 24.1256C21.4593 24.6519 20.7229 25.073 19.8814 25.073ZM6.31155 4.12464H3.15578C2.8402 4.12464 2.52462 4.33518 2.31423 4.54571C2.20904 4.75625 2.10385 4.96678 2.10385 5.28259C2.41943 8.33537 3.47135 11.2829 5.15443 13.9146C6.73232 16.3357 8.73098 18.4411 11.1504 19.9149C13.7802 21.5992 16.7256 22.6518 19.7762 22.9676C20.197 22.9676 20.4073 22.8624 20.6177 22.6518C20.8281 22.4413 20.9333 22.2308 20.9333 21.915V18.7569C20.9333 18.2306 20.5125 17.8095 19.9866 17.7042C18.9347 17.599 17.8827 17.2832 16.8308 16.8621C16.41 16.7568 15.9893 16.7568 15.6737 17.0726L14.3062 18.4411C13.9906 18.7569 13.4646 18.8622 13.0439 18.6516C10.2037 17.0726 7.88944 14.7567 6.31155 11.9145C6.20636 11.4934 6.31155 10.9671 6.62713 10.6513L7.99463 9.28278C8.20502 9.07224 8.31021 8.5459 8.20502 8.2301C7.78425 7.17742 7.57386 6.12473 7.36348 5.07205C7.36348 4.54571 6.83751 4.12464 6.31155 4.12464ZM18.8295 11.4934C18.3035 11.4934 17.8827 11.1776 17.7775 10.6513C17.462 8.96697 16.0945 7.70376 14.4114 7.28268C13.8854 7.17742 13.4646 6.65108 13.5698 6.01947C13.675 5.49313 14.201 5.07205 14.8321 5.17732C17.3568 5.70366 19.3554 7.59849 19.7762 10.1249C19.8814 10.6513 19.5658 11.2829 18.9347 11.3881C18.9347 11.3881 18.9347 11.4934 18.8295 11.4934ZM23.0372 11.3881C22.5112 11.3881 22.0904 10.9671 21.9852 10.4407C21.5645 6.54581 18.5139 3.49303 14.5166 2.96669C13.9906 2.86142 13.5698 2.33508 13.5698 1.80874C13.5698 1.2824 14.201 0.861328 14.727 0.861328C19.671 1.38767 23.4579 5.17732 23.9839 10.1249C24.0891 10.6513 23.6683 11.1776 23.0372 11.2829C23.1424 11.3881 23.0372 11.3881 23.0372 11.3881Z" fill="#5A0AFC"/>
</svg>
