<svg width="54" height="55" viewBox="0 0 54 55" fill="none" xmlns="http://www.w3.org/2000/svg">
<path d="M43.0652 29.6149C43.1552 28.9399 43.2002 28.2424 43.2002 27.4999C43.2002 26.7799 43.1552 26.0599 43.0427 25.3849L47.6102 21.8299C48.0152 21.5149 48.1278 20.9074 47.8802 20.4574L43.5602 12.9874C43.2902 12.4924 42.7277 12.3349 42.2327 12.4924L36.8552 14.6524C35.7302 13.7974 34.5377 13.0774 33.2102 12.5374L32.4002 6.8224C32.3102 6.2824 31.8602 5.8999 31.3202 5.8999H22.6802C22.1402 5.8999 21.7127 6.2824 21.6227 6.8224L20.8127 12.5374C19.4852 13.0774 18.2702 13.8199 17.1677 14.6524L11.7902 12.4924C11.2952 12.3124 10.7327 12.4924 10.4627 12.9874L6.16525 20.4574C5.89525 20.9299 5.98525 21.5149 6.43525 21.8299L11.0027 25.3849C10.8902 26.0599 10.8002 26.8024 10.8002 27.4999C10.8002 28.1974 10.8452 28.9399 10.9577 29.6149L6.39025 33.1699C5.98525 33.4849 5.87275 34.0924 6.12025 34.5424L10.4402 42.0124C10.7102 42.5074 11.2727 42.6649 11.7677 42.5074L17.1452 40.3474C18.2702 41.2024 19.4627 41.9224 20.7902 42.4624L21.6002 48.1774C21.7127 48.7174 22.1402 49.0999 22.6802 49.0999H31.3202C31.8602 49.0999 32.3102 48.7174 32.3777 48.1774L33.1877 42.4624C34.5152 41.9224 35.7302 41.2024 36.8327 40.3474L42.2103 42.5074C42.7052 42.6874 43.2677 42.5074 43.5378 42.0124L47.8577 34.5424C48.1278 34.0474 48.0152 33.4849 47.5877 33.1699L43.0652 29.6149ZM27.0002 35.5999C22.5452 35.5999 18.9002 31.9549 18.9002 27.4999C18.9002 23.0449 22.5452 19.3999 27.0002 19.3999C31.4552 19.3999 35.1002 23.0449 35.1002 27.4999C35.1002 31.9549 31.4552 35.5999 27.0002 35.5999Z" fill="#5A0AFC"/>
</svg>
