<svg width="55" height="55" viewBox="0 0 55 55" fill="none" xmlns="http://www.w3.org/2000/svg">
<path d="M21.3125 21.04V12.625C21.3125 9.52 23.8325 7 26.9375 7C30.0425 7 32.5625 9.52 32.5625 12.625V21.04C35.285 19.2175 37.0625 16.135 37.0625 12.625C37.0625 7.0225 32.54 2.5 26.9375 2.5C21.335 2.5 16.8125 7.0225 16.8125 12.625C16.8125 16.135 18.59 19.2175 21.3125 21.04ZM43.4525 31.4575L33.2375 26.3725C32.855 26.215 32.45 26.125 32.0225 26.125H30.3125V12.625C30.3125 10.7575 28.805 9.25 26.9375 9.25C25.07 9.25 23.5625 10.7575 23.5625 12.625V36.79C15.4625 35.08 15.5975 35.1025 15.305 35.1025C14.6075 35.1025 13.9775 35.395 13.5275 35.845L11.75 37.645L22.865 48.76C23.4725 49.3675 24.3275 49.75 25.25 49.75H40.5275C42.215 49.75 43.52 48.5125 43.7675 46.87L45.455 35.0125C45.4775 34.855 45.5 34.6975 45.5 34.5625C45.5 33.1675 44.645 31.9525 43.4525 31.4575Z" fill="#5A0AFC"/>
</svg>
