<svg width="201" height="83" viewBox="0 0 201 83" fill="none" xmlns="http://www.w3.org/2000/svg">
<path d="M18.7241 13.5713L13.119 23.6558C12.3086 25.1269 11.18 25.7816 9.9605 25.7816C9.46816 25.7816 8.9531 25.6639 8.44561 25.458L8.81675 24.4282C9.22577 24.5826 9.61208 24.6709 9.98323 24.6709C10.7255 24.6709 11.4148 24.3105 11.9753 23.3837L12.3313 22.8026L7.32458 13.5713H8.71828L13.0206 21.6919L17.4289 13.5713H18.7241Z" fill="white"/>
<path d="M23.4731 21.5521H21.3599V25.5609H20.1101V16.5503H21.3599V20.5076H23.4959L26.7604 16.5503H28.1163L24.4654 20.9195L28.3813 25.5609H26.8968L23.4731 21.5521Z" fill="white"/>
<path d="M39.7505 21.0596C39.7505 23.8032 37.7736 25.6495 35.1302 25.6495C33.6456 25.6495 32.3806 25.0316 31.6005 23.8694V28.8859H30.3507V16.5506H31.5475V18.3306C32.3049 17.1317 33.5926 16.4844 35.1302 16.4844C37.7812 16.4844 39.7505 18.3306 39.7505 21.0596ZM38.5008 21.0596C38.5008 18.9706 37.001 17.5509 35.0468 17.5509C33.0699 17.5509 31.5929 18.9706 31.5929 21.0596C31.5929 23.1633 33.0775 24.5682 35.0468 24.5682C37.001 24.5682 38.5008 23.1633 38.5008 21.0596Z" fill="white"/>
<path d="M49.3475 19.9783V25.5612H48.1507V24.1563C47.5826 25.0831 46.4919 25.6495 44.9619 25.6495C42.8638 25.6495 41.5762 24.5903 41.5762 23.0309C41.5762 21.6407 42.4927 20.4785 45.1588 20.4785H48.1053V19.9268C48.1053 18.3821 47.2039 17.5436 45.477 17.5436C44.2802 17.5436 43.1516 17.9555 42.3866 18.6028L41.8186 17.6981C42.7502 16.9257 44.1287 16.4844 45.5906 16.4844C47.9916 16.4844 49.3475 17.6466 49.3475 19.9783ZM48.0977 22.8543V21.3832H45.1892C43.3865 21.3832 42.8108 22.0673 42.8108 22.9941C42.8108 24.0386 43.6743 24.6932 45.1588 24.6932C46.5601 24.6859 47.6054 24.0386 48.0977 22.8543Z" fill="white"/>
<path d="M51.3772 14.0348C51.3772 13.6376 51.6953 13.314 52.1195 13.314C52.5285 13.314 52.8467 13.6229 52.8467 14.0348C52.8467 14.4614 52.5285 14.7704 52.1195 14.7704C51.6953 14.7704 51.3772 14.4467 51.3772 14.0348ZM52.6497 16.5505H53.8995V25.5611H52.6497V16.5505ZM53.7253 14.0348C53.7253 13.6376 54.0434 13.314 54.4449 13.314C54.869 13.314 55.1871 13.6229 55.1871 14.0348C55.1871 14.4614 54.869 14.7704 54.4449 14.7704C54.0434 14.7704 53.7253 14.4467 53.7253 14.0348Z" fill="white"/>
<path d="M57.4293 16.5503H58.6791V20.5444H64.519V16.5503H65.7687V25.5609H64.519V21.5889H58.6791V25.5609H57.4293V16.5503Z" fill="white"/>
<path d="M68.4348 21.0596C68.4348 18.3674 70.4496 16.4844 73.2143 16.4844C74.7822 16.4844 76.1077 17.0802 76.85 18.2644L75.9183 18.8823C75.2821 17.9776 74.2974 17.5436 73.2218 17.5436C71.1919 17.5436 69.7149 18.9485 69.7149 21.0522C69.7149 23.178 71.1995 24.5608 73.2218 24.5608C74.2974 24.5608 75.2821 24.1489 75.9183 23.2442L76.85 23.8621C76.1077 25.0243 74.7897 25.6421 73.2143 25.6421C70.442 25.6495 68.4348 23.7444 68.4348 21.0596Z" fill="white"/>
<path d="M86.8105 22.6113C86.8105 24.5311 85.4699 25.6051 83.0006 25.5756L79.2588 25.5609V16.5503H80.5086V19.6985L83.243 19.7353C85.5759 19.7573 86.8105 20.7651 86.8105 22.6113ZM85.5456 22.6113C85.5456 21.2726 84.6669 20.6621 82.9324 20.64L80.5161 20.6032V24.612L82.9324 24.6488C84.6442 24.6709 85.5456 23.9647 85.5456 22.6113Z" fill="white"/>
<path d="M92.5672 21.5521H90.4539V25.5609H89.2041V16.5503H90.4539V20.5076H92.5899L95.8545 16.5503H97.2103L93.5594 20.9195L97.4754 25.5609H95.9908L92.5672 21.5521Z" fill="white"/>
<path d="M106.216 19.9783V25.5612H105.019V24.1563C104.451 25.0831 103.36 25.6495 101.83 25.6495C99.7323 25.6495 98.4447 24.5903 98.4447 23.0309C98.4447 21.6407 99.3612 20.4785 102.027 20.4785H104.974V19.9268C104.974 18.3821 104.072 17.5436 102.346 17.5436C101.149 17.5436 100.02 17.9555 99.2552 18.6028L98.6871 17.6981C99.6187 16.9257 100.997 16.4844 102.459 16.4844C104.86 16.4844 106.216 17.6466 106.216 19.9783ZM104.966 22.8543V21.3832H102.058C100.255 21.3832 99.6793 22.0673 99.6793 22.9941C99.6793 24.0386 100.543 24.6932 102.027 24.6932C103.429 24.6859 104.466 24.0386 104.966 22.8543Z" fill="white"/>
<path d="M40.6895 38.2348C40.6895 40.7872 38.7883 42.3246 35.6449 42.3246H32.3273V46.1127H31.0245V34.123H35.6449C38.7807 34.123 40.6895 35.6677 40.6895 38.2348ZM39.3791 38.2348C39.3791 36.315 38.0763 35.219 35.607 35.219H32.3273V41.2139H35.607C38.0763 41.2139 39.3791 40.1179 39.3791 38.2348Z" fill="white"/>
<path d="M42.1136 41.6111C42.1136 38.941 44.1285 37.0359 46.8401 37.0359C49.5518 37.0359 51.5514 38.9336 51.5514 41.6111C51.5514 44.2885 49.5593 46.201 46.8401 46.201C44.1209 46.201 42.1136 44.2812 42.1136 41.6111ZM50.2865 41.6111C50.2865 39.5074 48.8246 38.1025 46.8477 38.1025C44.8708 38.1025 43.3938 39.5074 43.3938 41.6111C43.3938 43.7148 44.8783 45.1197 46.8477 45.1197C48.817 45.1197 50.2865 43.7148 50.2865 41.6111Z" fill="white"/>
<path d="M60.7467 43.5308C60.7467 45.1564 58.8909 46.2229 56.5807 46.2229C55.2552 46.2229 53.8994 45.8478 52.9147 45.1122L53.3389 44.2075C54.2024 44.84 55.3991 45.1858 56.5277 45.1858C58.2017 45.1858 59.459 44.5385 59.459 43.4351C59.459 42.4789 58.5046 41.9125 56.9519 41.9125H55.3613V41.0225H56.8761C58.232 41.0225 59.1863 40.4929 59.1863 39.6029C59.1863 38.6099 58.0956 38.0582 56.611 38.0582C55.6566 38.0582 54.6341 38.3009 53.6494 38.7937L53.2934 37.8522C54.4371 37.2711 55.6036 37.0137 56.7322 37.0137C58.8455 37.0137 60.474 37.9552 60.474 39.4263C60.474 40.3678 59.7469 41.0887 58.6713 41.427C59.9817 41.7139 60.7467 42.4642 60.7467 43.5308Z" fill="white"/>
<path d="M71.4649 37.1094L66.8293 47.1939C66.0567 48.9593 65.0644 49.5256 63.7465 49.5256C62.883 49.5256 62.0498 49.2535 61.4893 48.7018L62.0725 47.7971C62.5345 48.2458 63.0951 48.4811 63.7692 48.4811C64.5948 48.4811 65.1629 48.106 65.6931 46.9732L66.1021 46.0979L61.9589 37.1094H63.2617L66.7535 44.7666L70.2453 37.1094H71.4649Z" fill="white"/>
<path d="M83.7961 37.1094V46.12H82.6523V38.9924L78.8955 45.024H78.3274L74.5705 38.9777V46.12H73.4268V37.1094H74.6992L78.6304 43.6044L82.6372 37.1094H83.7961Z" fill="white"/>
<path d="M87.3634 37.1094H88.6132V41.1035H94.4531V37.1094H95.7029V46.12H94.4531V42.148H88.6132V46.12H87.3634V37.1094Z" fill="white"/>
<path d="M106.216 40.5298V46.1127H105.019V44.7078C104.451 45.6346 103.36 46.201 101.83 46.201C99.7323 46.201 98.4447 45.1418 98.4447 43.5824C98.4447 42.1922 99.3612 41.03 102.027 41.03H104.974V40.4783C104.974 38.9337 104.072 38.0951 102.346 38.0951C101.149 38.0951 100.02 38.507 99.2627 39.1543L98.6946 38.2496C99.6263 37.4772 101.005 37.0359 102.467 37.0359C104.86 37.0359 106.216 38.2054 106.216 40.5298ZM104.966 43.4058V41.9347H102.058C100.255 41.9347 99.6793 42.6188 99.6793 43.5456C99.6793 44.5901 100.543 45.2447 102.027 45.2447C103.429 45.2447 104.466 44.5901 104.966 43.4058Z" fill="white"/>
<path d="M9.71801 63.4645H2.84041L1.35583 66.6642H0L5.64296 54.6746H6.93063L12.5736 66.6642H11.195L9.71801 63.4645ZM9.24082 62.4421L6.27921 56.0059L3.31761 62.4421H9.24082Z" fill="white"/>
<path d="M22.4352 64.2224C22.4352 65.7817 21.2688 66.6718 18.8525 66.6718H14.6335V57.6611H18.7237C20.8219 57.6611 22.1095 58.485 22.1095 59.9708C22.1095 60.9785 21.5111 61.6699 20.5416 62.0083C21.8293 62.3025 22.4352 63.0381 22.4352 64.2224ZM15.853 61.67H18.6404C20.072 61.67 20.8597 61.1403 20.8597 60.1253C20.8597 59.1176 20.0644 58.6174 18.6404 58.6174H15.853V61.67ZM21.2006 64.1562C21.2006 63.0749 20.4962 62.582 18.9283 62.582H15.8606V65.7155H18.8071C20.3674 65.7082 21.2006 65.2301 21.2006 64.1562Z" fill="white"/>
<path d="M31.8883 58.7424H28.3814V66.6718H27.1316V58.7424H23.6246V57.6611H31.8959V58.7424H31.8883Z" fill="white"/>
<path d="M32.3806 62.1626C32.3806 59.4925 34.3954 57.5874 37.1071 57.5874C39.8188 57.5874 41.8184 59.4852 41.8184 62.1626C41.8184 64.84 39.8263 66.7525 37.1071 66.7525C34.3879 66.7525 32.3806 64.84 32.3806 62.1626ZM40.5459 62.1626C40.5459 60.0589 39.084 58.654 37.1071 58.654C35.1302 58.654 33.6531 60.0589 33.6531 62.1626C33.6531 64.2663 35.1377 65.6712 37.1071 65.6712C39.084 65.6786 40.5459 64.2737 40.5459 62.1626Z" fill="white"/>
<path d="M54.8695 57.6611V66.6718H53.7258V59.5442L49.9689 65.5758H49.4008L45.6439 59.5295V66.6718H44.5001V57.6611H45.7726L49.7037 64.1562L53.7106 57.6611H54.8695Z" fill="white"/>
<path d="M65.3828 61.0886V66.6715H64.186V65.2666C63.6179 66.1934 62.5272 66.7598 60.9971 66.7598C58.899 66.7598 57.6113 65.7006 57.6113 64.1412C57.6113 62.751 58.5279 61.5888 61.1941 61.5888H64.1405V61.0371C64.1405 59.4925 63.2392 58.6539 61.5122 58.6539C60.3154 58.6539 59.1868 59.0659 58.4218 59.7131L57.8537 58.8084C58.7854 58.0361 60.1639 57.5947 61.6258 57.5947C64.0269 57.5947 65.3828 58.7569 65.3828 61.0886ZM64.133 63.9647V62.4936H61.2244C59.4216 62.4936 58.846 63.1776 58.846 64.1044C58.846 65.1489 59.7095 65.8036 61.1941 65.8036C62.5954 65.7962 63.6407 65.1489 64.133 63.9647Z" fill="white"/>
<path d="M75.2442 58.7424H71.7372V66.6718H70.4874V58.7424H66.9805V57.6611H75.2518V58.7424H75.2442Z" fill="white"/>
<path d="M77.0621 57.6611H78.3119V64.8182L84.5002 57.6611H85.6137V66.6718H84.3639V59.5147L78.1908 66.6718H77.0621V57.6611Z" fill="white"/>
<path d="M92.5672 62.663H90.4539V66.6718H89.2041V57.6611H90.4539V61.6185H92.5899L95.8545 57.6611H97.2103L93.5594 62.0304L97.4754 66.6718H95.9908L92.5672 62.663Z" fill="white"/>
<path d="M106.216 61.0886V66.6715H105.019V65.2666C104.451 66.1934 103.36 66.7598 101.83 66.7598C99.7323 66.7598 98.4447 65.7006 98.4447 64.1412C98.4447 62.751 99.3612 61.5888 102.027 61.5888H104.974V61.0371C104.974 59.4925 104.072 58.6539 102.346 58.6539C101.149 58.6539 100.02 59.0659 99.2627 59.7131L98.6946 58.8084C99.6263 58.0361 101.005 57.5947 102.467 57.5947C104.86 57.5947 106.216 58.7569 106.216 61.0886ZM104.966 63.9647V62.4936H102.058C100.255 62.4936 99.6793 63.1776 99.6793 64.1044C99.6793 65.1489 100.543 65.8036 102.027 65.8036C103.429 65.7962 104.466 65.1489 104.966 63.9647Z" fill="white"/>
<path d="M193.019 38.154L198.238 36.374C199.866 35.8149 200.73 34.079 200.162 32.4902L196.465 22.2438C196.185 21.4788 195.617 20.861 194.867 20.5079C194.11 20.1548 193.261 20.1107 192.473 20.3755L187.255 22.1556C186.528 22.4057 185.71 22.1629 185.255 21.5671C184.005 19.9194 182.581 18.3748 181.029 16.9846C180.46 16.477 180.309 15.6753 180.65 14.9912L183.051 10.1512C183.801 8.63594 183.142 6.81175 181.581 6.08355L171.507 1.37596C169.947 0.647755 168.069 1.2877 167.319 2.80295L164.918 7.64293C164.577 8.32701 163.835 8.70951 163.07 8.59918C160.979 8.29024 158.851 8.17991 156.745 8.25346C155.987 8.28288 155.283 7.8121 155.026 7.10597L153.192 2.03796C152.617 0.456505 150.829 -0.382041 149.193 0.16963L138.642 3.75917C137.854 4.03133 137.218 4.58301 136.854 5.31122C136.491 6.04678 136.445 6.87059 136.718 7.63557L138.551 12.7036C138.809 13.4097 138.559 14.2041 137.945 14.6455C136.248 15.8591 134.658 17.242 133.226 18.7499C132.704 19.3016 131.878 19.4487 131.174 19.1177L126.19 16.786C124.629 16.0577 122.751 16.6977 122.001 18.2129L117.153 27.9959C116.403 29.5112 117.062 31.3354 118.623 32.0636L123.607 34.3953C124.311 34.7263 124.705 35.4471 124.591 36.1901C124.273 38.2202 124.16 40.2871 124.235 42.332C124.266 43.0676 123.781 43.759 123.054 44.0017L117.835 45.7818C116.207 46.3408 115.343 48.0767 115.911 49.6655L119.607 59.9119C120.183 61.4934 121.971 62.3319 123.607 61.7802L128.826 60.0002C129.553 59.7501 130.371 59.9928 130.825 60.5886C132.075 62.2363 133.499 63.781 135.052 65.1712C135.62 65.6787 135.771 66.4805 135.43 67.1646L133.029 72.0045C132.279 73.5198 132.938 75.344 134.499 76.0722L144.573 80.7798C146.133 81.508 148.012 80.868 148.761 79.3528L151.163 74.5128C151.503 73.8287 152.246 73.4462 153.011 73.5566C155.101 73.8655 157.222 73.9759 159.335 73.9023C160.085 73.8729 160.797 74.3436 161.055 75.0498L162.888 80.1178C163.168 80.8828 163.736 81.5006 164.486 81.8537C164.918 82.0523 165.38 82.1553 165.842 82.1553C166.19 82.1553 166.539 82.0964 166.879 81.9787L177.431 78.3892C178.218 78.117 178.855 77.5654 179.218 76.8372C179.582 76.1016 179.627 75.2778 179.355 74.5128L177.522 69.4448C177.264 68.7313 177.506 67.9516 178.128 67.5029C179.824 66.2892 181.415 64.9064 182.846 63.3985C183.369 62.8468 184.195 62.6997 184.899 63.0307L189.883 65.3624C190.64 65.7155 191.489 65.7596 192.277 65.4948C193.064 65.2227 193.701 64.671 194.064 63.9428L198.912 54.1598C199.662 52.6446 199.003 50.8204 197.442 50.0922L192.458 47.7604C191.754 47.4294 191.36 46.7086 191.474 45.9657C191.792 43.9355 191.905 41.8686 191.83 39.8237C191.807 39.0882 192.292 38.3968 193.019 38.154ZM190.474 39.8752C190.55 41.8392 190.436 43.8178 190.133 45.7671C189.928 47.0911 190.625 48.3636 191.875 48.952L196.859 51.2838C197.738 51.6957 198.109 52.7255 197.685 53.5787L192.837 63.3617C192.633 63.7736 192.277 64.0899 191.83 64.237C191.383 64.3915 190.898 64.3621 190.474 64.1635L185.49 61.8317C184.24 61.2506 182.778 61.5154 181.839 62.4937C180.46 63.9354 178.938 65.2594 177.309 66.429C176.204 67.2234 175.772 68.6062 176.226 69.8714L178.059 74.9394C178.218 75.3734 178.188 75.8368 177.984 76.2561C177.779 76.668 177.423 76.9843 176.976 77.1314L166.425 80.7209C165.978 80.8754 165.493 80.846 165.069 80.6474C164.645 80.4488 164.319 80.1031 164.168 79.6691L162.335 74.6011C161.888 73.3727 160.721 72.5636 159.396 72.5636C159.358 72.5636 159.313 72.5636 159.275 72.5636C157.252 72.6371 155.207 72.5268 153.208 72.2326C151.844 72.034 150.534 72.7107 149.928 73.9244L147.527 78.7643C147.103 79.6176 146.042 79.978 145.164 79.5661L135.09 74.8585C134.211 74.4466 133.84 73.4168 134.264 72.5636L136.665 67.7236C137.263 66.5099 136.991 65.0903 135.983 64.1782C134.499 62.8395 133.135 61.361 131.931 59.7795C131.113 58.7056 129.689 58.2863 128.386 58.7277L123.167 60.5077C122.243 60.824 121.228 60.3459 120.91 59.4559L117.214 49.2095C117.055 48.7755 117.085 48.3121 117.29 47.8928C117.494 47.4809 117.85 47.1646 118.297 47.0175L123.516 45.2375C124.819 44.7961 125.667 43.5972 125.614 42.2658C125.538 40.3019 125.652 38.3232 125.955 36.374C126.159 35.0499 125.462 33.7774 124.213 33.189L119.229 30.8572C118.35 30.4453 117.979 29.4155 118.403 28.5623L123.251 18.7793C123.455 18.3674 123.811 18.0511 124.258 17.904C124.705 17.7496 125.19 17.779 125.614 17.9776L130.598 20.3093C131.848 20.8904 133.31 20.6256 134.249 19.6473C135.627 18.2056 137.15 16.8816 138.778 15.712C139.884 14.9176 140.316 13.5348 139.861 12.2696L138.028 7.20159C137.869 6.76761 137.9 6.30422 138.104 5.88495C138.309 5.46568 138.665 5.15675 139.112 5.00963L149.663 1.42009C150.587 1.1038 151.602 1.58191 151.92 2.47194L153.753 7.53997C154.207 8.80513 155.442 9.6216 156.813 9.57746C158.835 9.50391 160.873 9.61425 162.88 9.90847C164.244 10.1071 165.554 9.43035 166.16 8.21667L168.561 3.37669C168.985 2.52344 170.046 2.16301 170.924 2.57493L180.998 7.28252C181.877 7.69443 182.248 8.72421 181.824 9.57746L179.423 14.4174C178.824 15.6311 179.097 17.0508 180.104 17.9629C181.589 19.3016 182.952 20.7801 184.157 22.3615C184.975 23.4354 186.399 23.8547 187.702 23.4134L192.92 21.6333C193.367 21.4788 193.852 21.5083 194.276 21.7069C194.7 21.9055 195.026 22.2512 195.178 22.6852L198.874 32.9315C199.2 33.8289 198.707 34.8146 197.791 35.1235L192.572 36.9036C191.262 37.3449 190.421 38.5439 190.474 39.8752Z" fill="white"/>
<path d="M179.029 27.6207C179.006 27.5839 178.976 27.5398 178.938 27.5104C178.771 27.3485 178.544 27.2897 178.332 27.3265C178.203 27.3485 178.074 27.4074 177.976 27.5104L176.082 29.3493C175.946 29.4817 175.878 29.6582 175.885 29.8421L176.37 41.2874L173.09 44.4724C172.325 43.8987 171.371 43.5456 170.333 43.5456C167.856 43.5456 165.842 45.5022 165.842 47.9074C165.842 50.3127 167.856 52.2693 170.333 52.2693C172.81 52.2693 174.825 50.3127 174.825 47.9074C174.825 46.988 174.529 46.1348 174.03 45.4286L177.552 42.0083C177.688 41.8759 177.756 41.6993 177.749 41.5154L177.264 30.0701L178.339 29.0256C179.21 30.4158 179.938 31.8943 180.491 33.439C184.831 45.458 178.286 58.6687 165.91 62.8761C158.214 65.4947 149.594 64.0604 143.232 59.1542L146.959 55.5352C147.087 55.4102 147.156 55.241 147.156 55.0645V47.2896L157.798 36.955C158.517 37.4331 159.388 37.7126 160.327 37.7126C162.804 37.7126 164.819 35.756 164.819 33.3507C164.819 30.9454 162.804 28.9888 160.327 28.9888C157.851 28.9888 155.836 30.9454 155.836 33.3507C155.836 34.3658 156.199 35.3073 156.805 36.0502L145.997 46.5467C145.868 46.6717 145.8 46.8409 145.8 47.0174V54.7923L141.626 58.8453C141.361 59.1027 141.361 59.522 141.626 59.7794C141.763 59.9118 141.937 59.9707 142.111 59.9707C146.663 63.5823 152.336 65.4947 158.085 65.4947C160.873 65.4947 163.668 65.046 166.364 64.1339C179.453 59.6838 186.368 45.7155 181.778 33.005C181.089 31.0999 180.165 29.2904 179.029 27.6207ZM170.333 50.9453C168.606 50.9453 167.205 49.5845 167.205 47.9074C167.205 46.2304 168.606 44.8696 170.333 44.8696C172.06 44.8696 173.461 46.2304 173.461 47.9074C173.461 49.5772 172.053 50.9453 170.333 50.9453ZM160.327 30.3202C162.054 30.3202 163.456 31.681 163.456 33.3581C163.456 35.0351 162.054 36.3959 160.327 36.3959C158.6 36.3959 157.199 35.0351 157.199 33.3581C157.199 31.681 158.6 30.3202 160.327 30.3202Z" fill="white"/>
<path d="M143.596 38.6615C144.361 39.2353 145.315 39.5883 146.353 39.5883C148.83 39.5883 150.845 37.6317 150.845 35.2265C150.845 32.8212 148.83 30.8646 146.353 30.8646C143.876 30.8646 141.862 32.8212 141.862 35.2265C141.862 36.1459 142.157 36.9992 142.657 37.7053L139.135 41.1256C138.998 41.258 138.93 41.4346 138.938 41.6185L139.423 53.0638L138.377 54.0789C137.218 52.4312 136.287 50.6291 135.597 48.724C131.257 36.7049 137.802 23.4943 150.178 19.2869C158.237 16.5432 167.137 18.1982 173.583 23.5973L169.728 27.3413C169.599 27.4663 169.531 27.6355 169.531 27.812V35.5869L158.889 45.9215C158.169 45.4434 157.298 45.1639 156.359 45.1639C153.882 45.1639 151.867 47.1205 151.867 49.5258C151.867 51.931 153.882 53.8876 156.359 53.8876C158.836 53.8876 160.851 51.931 160.851 49.5258C160.851 48.5107 160.487 47.5692 159.881 46.8262L170.69 36.3298C170.819 36.2048 170.887 36.0356 170.887 35.8591V28.0842L175.06 24.0312C175.068 24.0239 175.068 24.0165 175.075 24.0165C175.075 24.0165 175.083 24.0165 175.083 24.0092C175.09 24.0018 175.091 23.9945 175.098 23.9871C175.121 23.9577 175.143 23.9356 175.159 23.9062C175.166 23.8988 175.166 23.8915 175.174 23.8841C175.189 23.8547 175.204 23.8253 175.219 23.7885C175.219 23.7812 175.227 23.7738 175.227 23.7664C175.234 23.737 175.25 23.7002 175.25 23.6635C175.25 23.6561 175.25 23.6487 175.25 23.6414C175.257 23.6046 175.257 23.5752 175.257 23.5384C175.257 23.5311 175.257 23.5237 175.257 23.5164C175.257 23.4796 175.25 23.4501 175.242 23.4134C175.242 23.406 175.234 23.3913 175.234 23.3839C175.227 23.3545 175.219 23.3251 175.204 23.2957C175.197 23.281 175.189 23.2736 175.189 23.2589C175.174 23.2295 175.159 23.2074 175.144 23.178C175.136 23.1633 175.121 23.1559 175.113 23.1412C175.098 23.1265 175.083 23.1044 175.068 23.0897C175.06 23.0824 175.06 23.0824 175.053 23.075L175.045 23.0676C168.19 16.9772 158.495 15.05 149.731 18.0291C136.643 22.4792 129.727 36.4475 134.317 49.158C135.105 51.3426 136.196 53.3801 137.559 55.241C137.574 55.3808 137.643 55.5206 137.749 55.6236C137.885 55.756 138.059 55.8148 138.233 55.8148C138.408 55.8148 138.582 55.7486 138.718 55.6236L140.612 53.7847C140.748 53.6523 140.816 53.4757 140.809 53.2918L140.324 41.8465L143.596 38.6615ZM146.353 32.1886C148.08 32.1886 149.481 33.5494 149.481 35.2265C149.481 36.9035 148.08 38.2643 146.353 38.2643C144.626 38.2643 143.225 36.9035 143.225 35.2265C143.225 33.5494 144.626 32.1886 146.353 32.1886ZM156.351 52.5489C154.624 52.5489 153.223 51.1881 153.223 49.5111C153.223 47.834 154.624 46.4732 156.351 46.4732C158.078 46.4732 159.48 47.834 159.48 49.5111C159.48 51.1808 158.078 52.5489 156.351 52.5489Z" fill="white"/>
</svg>
